<svg xmlns="http://www.w3.org/2000/svg" xmlns:xlink="http://www.w3.org/1999/xlink" width="1080" zoomAndPan="magnify" viewBox="0 0 810 374.999991" height="500" preserveAspectRatio="xMidYMid meet" version="1.0"><defs><g/><clipPath id="9d47ac2bd0"><path d="M 58 83 L 352 83 L 352 347.113281 L 58 347.113281 Z M 58 83 " clip-rule="nonzero"/></clipPath></defs><g clip-path="url(#9d47ac2bd0)"><path fill="#000000" d="M 351.003906 148.214844 C 334.472656 63.1875 230.859375 61.765625 205.308594 141.253906 C 179.757812 61.769531 76.140625 63.1875 59.613281 148.214844 C 44.613281 225.359375 205.308594 347.070312 205.308594 347.070312 C 205.308594 347.070312 366 225.359375 351.003906 148.214844 Z M 351.003906 148.214844 " fill-opacity="1" fill-rule="nonzero"/></g><path fill="#ffffff" d="M 97.382812 255.117188 C 109.867188 255.117188 122.351562 255.117188 134.839844 255.117188 C 136.976562 255.117188 138.730469 253.675781 139.351562 251.675781 C 147.15625 226.707031 154.957031 201.734375 162.761719 176.765625 C 159.753906 176.765625 156.746094 176.765625 153.734375 176.765625 C 163.097656 202.777344 172.460938 228.789062 181.828125 254.800781 C 183.316406 258.941406 189.648438 259.574219 190.855469 254.800781 C 201.261719 213.699219 211.667969 172.601562 222.070312 131.503906 C 219.0625 131.503906 216.050781 131.503906 213.042969 131.503906 C 222.925781 187.691406 232.808594 243.875 242.695312 300.058594 C 243.382812 303.984375 249.546875 304.703125 251.25 301.179688 C 258.769531 285.648438 266.285156 270.113281 273.800781 254.578125 C 275.671875 250.71875 267.980469 255.117188 273.039062 255.117188 C 277.964844 255.117188 282.890625 255.117188 287.816406 255.117188 C 296.652344 255.117188 305.484375 255.117188 314.320312 255.117188 C 320.355469 255.117188 320.355469 245.75 314.320312 245.75 C 299.753906 245.75 285.1875 245.75 270.621094 245.75 C 269.070312 245.75 267.277344 246.617188 266.578125 248.070312 C 258.773438 264.195312 250.972656 280.324219 243.167969 296.453125 C 246.019531 296.824219 248.871094 297.195312 251.722656 297.570312 C 241.835938 241.386719 231.957031 185.199219 222.070312 129.011719 C 221.246094 124.34375 214.125 124.730469 213.042969 129.011719 C 202.636719 170.113281 192.230469 211.210938 181.828125 252.3125 C 184.835938 252.3125 187.847656 252.3125 190.855469 252.3125 C 181.492188 226.296875 172.128906 200.285156 162.765625 174.273438 C 161.210938 169.964844 155.171875 169.675781 153.734375 174.273438 C 145.929688 199.246094 138.128906 224.21875 130.324219 249.191406 C 131.828125 248.042969 133.335938 246.898438 134.839844 245.753906 C 122.351562 245.753906 109.867188 245.753906 97.382812 245.753906 C 91.34375 245.753906 91.34375 255.117188 97.382812 255.117188 Z M 97.382812 255.117188 " fill-opacity="1" fill-rule="nonzero"/><g fill="#000000" fill-opacity="1"><g transform="translate(382.552185, 255.175948)"><g><path d="M 2 -61.46875 L 2 -67.9375 L 41.84375 -67.9375 L 41.84375 -61.46875 L 25.40625 -61.46875 L 25.40625 -0.203125 L 18.4375 -0.203125 L 18.4375 -61.46875 Z M 2 -61.46875 "/></g></g></g><g fill="#000000" fill-opacity="1"><g transform="translate(426.382433, 255.175948)"><g><path d="M 14.546875 -58.984375 C 15.410156 -58.117188 15.84375 -57.085938 15.84375 -55.890625 C 15.84375 -54.628906 15.410156 -53.566406 14.546875 -52.703125 C 13.679688 -51.835938 12.648438 -51.40625 11.453125 -51.40625 C 10.191406 -51.40625 9.128906 -51.835938 8.265625 -52.703125 C 7.398438 -53.566406 6.96875 -54.628906 6.96875 -55.890625 C 6.96875 -57.085938 7.398438 -58.117188 8.265625 -58.984375 C 9.128906 -59.835938 10.191406 -60.265625 11.453125 -60.265625 C 12.648438 -60.265625 13.679688 -59.835938 14.546875 -58.984375 Z M 14.9375 0 L 7.96875 0 L 7.96875 -43.828125 L 14.9375 -43.828125 Z M 14.9375 0 "/></g></g></g><g fill="#000000" fill-opacity="1"><g transform="translate(449.194088, 255.175948)"><g><path d="M 63.0625 -0.203125 L 63.0625 -27.59375 C 63.0625 -32.113281 61.632812 -35.300781 58.78125 -37.15625 C 57.78125 -37.757812 56.253906 -38.0625 54.203125 -38.0625 C 52.140625 -38.0625 50.210938 -37.460938 48.421875 -36.265625 C 46.628906 -35.066406 45.203125 -33.539062 44.140625 -31.6875 C 43.734375 -30.945312 43.363281 -30.148438 43.03125 -29.296875 C 43.03125 -28.765625 43.03125 -28.195312 43.03125 -27.59375 L 43.03125 -0.203125 L 36.0625 -0.203125 L 36.0625 -27.59375 C 36.0625 -32.113281 34.632812 -35.300781 31.78125 -37.15625 C 30.78125 -37.757812 29.253906 -38.0625 27.203125 -38.0625 C 25.140625 -38.0625 23.210938 -37.460938 21.421875 -36.265625 C 19.628906 -35.066406 18.203125 -33.539062 17.140625 -31.6875 C 15.742188 -29.226562 14.847656 -26.203125 14.453125 -22.609375 L 14.453125 -0.203125 L 7.46875 -0.203125 L 7.46875 -44.03125 L 14.453125 -44.03125 L 14.453125 -37.0625 C 15.773438 -39.320312 17.429688 -41.148438 19.421875 -42.546875 C 21.679688 -44.203125 24.335938 -45.03125 27.390625 -45.03125 C 30.453125 -45.03125 32.910156 -44.566406 34.765625 -43.640625 C 36.628906 -42.640625 38.191406 -41.34375 39.453125 -39.75 C 40.117188 -38.820312 40.71875 -37.789062 41.25 -36.65625 C 42.570312 -39.050781 44.296875 -41.015625 46.421875 -42.546875 C 48.679688 -44.203125 51.335938 -45.03125 54.390625 -45.03125 C 57.453125 -45.03125 59.910156 -44.566406 61.765625 -43.640625 C 63.628906 -42.640625 65.191406 -41.34375 66.453125 -39.75 C 68.835938 -36.625 70.03125 -32.570312 70.03125 -27.59375 L 70.03125 -0.203125 Z M 63.0625 -0.203125 "/></g></g></g><g fill="#000000" fill-opacity="1"><g transform="translate(525.199736, 255.175948)"><g><path d="M 50.3125 -22.90625 L 50.3125 -19.234375 L 11.75 -19.234375 C 12.414062 -15.441406 14.242188 -12.351562 17.234375 -9.96875 C 20.285156 -7.507812 23.671875 -6.28125 27.390625 -6.28125 C 29.921875 -6.28125 32.347656 -6.875 34.671875 -8.0625 C 36.929688 -9.195312 38.820312 -10.796875 40.34375 -12.859375 L 48.3125 -12.859375 C 46.457031 -8.671875 43.671875 -5.378906 39.953125 -2.984375 C 36.160156 -0.523438 32.34375 0.703125 28.5 0.703125 C 24.570312 0.703125 21.25 0.101562 18.53125 -1.09375 C 15.738281 -2.289062 13.3125 -3.921875 11.25 -5.984375 C 6.738281 -10.359375 4.484375 -15.734375 4.484375 -22.109375 C 4.484375 -28.421875 6.738281 -33.835938 11.25 -38.359375 C 15.707031 -42.804688 21.085938 -45.03125 27.390625 -45.03125 C 33.503906 -45.03125 38.851562 -42.875 43.4375 -38.5625 C 48.019531 -34.175781 50.3125 -28.957031 50.3125 -22.90625 Z M 42.9375 -25.203125 C 42.144531 -28.921875 40.285156 -32.007812 37.359375 -34.46875 C 34.429688 -36.863281 31.109375 -38.0625 27.390625 -38.0625 C 21.679688 -38.0625 17.203125 -35.503906 13.953125 -30.390625 C 12.953125 -28.796875 12.253906 -27.066406 11.859375 -25.203125 Z M 42.9375 -25.203125 "/></g></g></g><g fill="#000000" fill-opacity="1"><g transform="translate(579.489478, 255.175948)"><g><path d="M 14.453125 0 L 7.46875 0 L 7.46875 -74.71875 L 14.453125 -74.71875 Z M 14.453125 0 "/></g></g></g><g fill="#000000" fill-opacity="1"><g transform="translate(601.404613, 255.175948)"><g><path d="M 50.3125 -22.90625 L 50.3125 -19.234375 L 11.75 -19.234375 C 12.414062 -15.441406 14.242188 -12.351562 17.234375 -9.96875 C 20.285156 -7.507812 23.671875 -6.28125 27.390625 -6.28125 C 29.921875 -6.28125 32.347656 -6.875 34.671875 -8.0625 C 36.929688 -9.195312 38.820312 -10.796875 40.34375 -12.859375 L 48.3125 -12.859375 C 46.457031 -8.671875 43.671875 -5.378906 39.953125 -2.984375 C 36.160156 -0.523438 32.34375 0.703125 28.5 0.703125 C 24.570312 0.703125 21.25 0.101562 18.53125 -1.09375 C 15.738281 -2.289062 13.3125 -3.921875 11.25 -5.984375 C 6.738281 -10.359375 4.484375 -15.734375 4.484375 -22.109375 C 4.484375 -28.421875 6.738281 -33.835938 11.25 -38.359375 C 15.707031 -42.804688 21.085938 -45.03125 27.390625 -45.03125 C 33.503906 -45.03125 38.851562 -42.875 43.4375 -38.5625 C 48.019531 -34.175781 50.3125 -28.957031 50.3125 -22.90625 Z M 42.9375 -25.203125 C 42.144531 -28.921875 40.285156 -32.007812 37.359375 -34.46875 C 34.429688 -36.863281 31.109375 -38.0625 27.390625 -38.0625 C 21.679688 -38.0625 17.203125 -35.503906 13.953125 -30.390625 C 12.953125 -28.796875 12.253906 -27.066406 11.859375 -25.203125 Z M 42.9375 -25.203125 "/></g></g></g><g fill="#000000" fill-opacity="1"><g transform="translate(655.694355, 255.175948)"><g><path d="M 13.84375 -6.28125 C 15.570312 -5.082031 17.832031 -4.484375 20.625 -4.484375 C 27 -4.484375 30.1875 -6.875 30.1875 -11.65625 C 30.1875 -14.445312 27.894531 -16.570312 23.3125 -18.03125 C 21.382812 -18.695312 19.328125 -19.296875 17.140625 -19.828125 C 14.878906 -20.359375 12.785156 -21.054688 10.859375 -21.921875 C 8.597656 -22.984375 6.90625 -24.3125 5.78125 -25.90625 C 4.644531 -27.5 4.078125 -29.390625 4.078125 -31.578125 C 4.078125 -35.960938 5.609375 -39.25 8.671875 -41.4375 C 11.722656 -43.695312 15.375 -44.828125 19.625 -44.828125 C 23.875 -44.828125 27.394531 -43.960938 30.1875 -42.234375 C 32.976562 -40.515625 34.867188 -37.425781 35.859375 -32.96875 L 28.390625 -32.96875 C 27.597656 -35.425781 26.4375 -37.054688 24.90625 -37.859375 C 23.445312 -38.648438 21.617188 -39.046875 19.421875 -39.046875 C 17.234375 -39.046875 15.375 -38.582031 13.84375 -37.65625 C 12.25 -36.65625 11.453125 -35.195312 11.453125 -33.28125 C 11.453125 -31.28125 12.117188 -29.816406 13.453125 -28.890625 C 14.710938 -28.023438 16.304688 -27.257812 18.234375 -26.59375 C 20.160156 -26 22.25 -25.46875 24.5 -25 C 26.695312 -24.46875 28.789062 -23.738281 30.78125 -22.8125 C 35.300781 -20.6875 37.5625 -17.265625 37.5625 -12.546875 C 37.5625 -7.835938 35.867188 -4.351562 32.484375 -2.09375 C 30.753906 -0.96875 28.859375 -0.101562 26.796875 0.5 C 24.804688 1.03125 22.613281 1.296875 20.21875 1.296875 C 10.0625 1.296875 4.21875 -3.21875 2.6875 -12.25 L 10.0625 -12.25 C 10.789062 -9.394531 12.050781 -7.40625 13.84375 -6.28125 Z M 13.84375 -6.28125 "/></g></g></g><g fill="#000000" fill-opacity="1"><g transform="translate(695.739271, 255.175948)"><g><path d="M 13.84375 -6.28125 C 15.570312 -5.082031 17.832031 -4.484375 20.625 -4.484375 C 27 -4.484375 30.1875 -6.875 30.1875 -11.65625 C 30.1875 -14.445312 27.894531 -16.570312 23.3125 -18.03125 C 21.382812 -18.695312 19.328125 -19.296875 17.140625 -19.828125 C 14.878906 -20.359375 12.785156 -21.054688 10.859375 -21.921875 C 8.597656 -22.984375 6.90625 -24.3125 5.78125 -25.90625 C 4.644531 -27.5 4.078125 -29.390625 4.078125 -31.578125 C 4.078125 -35.960938 5.609375 -39.25 8.671875 -41.4375 C 11.722656 -43.695312 15.375 -44.828125 19.625 -44.828125 C 23.875 -44.828125 27.394531 -43.960938 30.1875 -42.234375 C 32.976562 -40.515625 34.867188 -37.425781 35.859375 -32.96875 L 28.390625 -32.96875 C 27.597656 -35.425781 26.4375 -37.054688 24.90625 -37.859375 C 23.445312 -38.648438 21.617188 -39.046875 19.421875 -39.046875 C 17.234375 -39.046875 15.375 -38.582031 13.84375 -37.65625 C 12.25 -36.65625 11.453125 -35.195312 11.453125 -33.28125 C 11.453125 -31.28125 12.117188 -29.816406 13.453125 -28.890625 C 14.710938 -28.023438 16.304688 -27.257812 18.234375 -26.59375 C 20.160156 -26 22.25 -25.46875 24.5 -25 C 26.695312 -24.46875 28.789062 -23.738281 30.78125 -22.8125 C 35.300781 -20.6875 37.5625 -17.265625 37.5625 -12.546875 C 37.5625 -7.835938 35.867188 -4.351562 32.484375 -2.09375 C 30.753906 -0.96875 28.859375 -0.101562 26.796875 0.5 C 24.804688 1.03125 22.613281 1.296875 20.21875 1.296875 C 10.0625 1.296875 4.21875 -3.21875 2.6875 -12.25 L 10.0625 -12.25 C 10.789062 -9.394531 12.050781 -7.40625 13.84375 -6.28125 Z M 13.84375 -6.28125 "/></g></g></g><g fill="#000000" fill-opacity="1"><g transform="translate(650.502912, 290.472664)"><g><path d="M 1.21875 -1.078125 L 1.21875 -19.296875 L 5.453125 -19.25 L 5.390625 -4.90625 L 13.421875 -4.90625 L 13.421875 -1.078125 Z M 1.21875 -1.078125 "/></g></g></g><g fill="#000000" fill-opacity="1"><g transform="translate(667.082639, 290.472664)"><g><path d="M 0.921875 -14.125 L 4.84375 -14.125 L 4.84375 -1.078125 L 0.921875 -1.078125 Z M 0.921875 -20.1875 L 4.84375 -20.1875 L 4.84375 -17.03125 L 0.921875 -17.03125 Z M 0.921875 -20.1875 "/></g></g></g><g fill="#000000" fill-opacity="1"><g transform="translate(675.081637, 290.472664)"><g><path d="M -0.390625 -14.125 C -0.390625 -14.144531 -0.390625 -14.15625 -0.390625 -14.15625 C -0.390625 -14.21875 -0.34375 -14.257812 -0.25 -14.28125 C -0.0820312 -14.300781 0.507812 -14.3125 1.53125 -14.3125 L 3.53125 -14.28125 L 4.71875 -10.75 C 5.570312 -8.195312 6.03125 -6.757812 6.09375 -6.4375 C 6.21875 -6.03125 6.3125 -5.828125 6.375 -5.828125 C 6.414062 -5.867188 6.515625 -6.179688 6.671875 -6.765625 C 6.710938 -6.867188 6.851562 -7.328125 7.09375 -8.140625 C 7.34375 -8.960938 7.550781 -9.640625 7.71875 -10.171875 C 8.269531 -11.867188 8.617188 -12.960938 8.765625 -13.453125 L 9.015625 -14.3125 L 10.96875 -14.3125 C 12.300781 -14.3125 12.96875 -14.269531 12.96875 -14.1875 C 12.96875 -14.101562 12.5625 -12.832031 11.75 -10.375 C 10.945312 -7.925781 10.238281 -5.785156 9.625 -3.953125 L 8.671875 -1.140625 L 4.015625 -1.078125 L 3.859375 -1.4375 C 2.796875 -4.457031 1.378906 -8.6875 -0.390625 -14.125 Z M -0.390625 -14.125 "/></g></g></g><g fill="#000000" fill-opacity="1"><g transform="translate(690.098445, 290.472664)"><g><path d="M 0.921875 -14.125 L 4.84375 -14.125 L 4.84375 -1.078125 L 0.921875 -1.078125 Z M 0.921875 -20.1875 L 4.84375 -20.1875 L 4.84375 -17.03125 L 0.921875 -17.03125 Z M 0.921875 -20.1875 "/></g></g></g><g fill="#000000" fill-opacity="1"><g transform="translate(698.097443, 290.472664)"><g><path d="M 7.328125 -14.25 C 7.628906 -14.375 8.054688 -14.4375 8.609375 -14.4375 C 8.648438 -14.4375 8.835938 -14.429688 9.171875 -14.421875 C 9.515625 -14.410156 9.867188 -14.351562 10.234375 -14.25 C 10.578125 -14.125 10.9375 -13.90625 11.3125 -13.59375 C 11.695312 -13.289062 11.984375 -12.96875 12.171875 -12.625 C 12.453125 -12.070312 12.640625 -11.460938 12.734375 -10.796875 C 12.828125 -10.140625 12.875 -8.472656 12.875 -5.796875 L 12.875 -1.078125 L 8.921875 -1.078125 L 8.921875 -5.109375 C 8.921875 -7.035156 8.898438 -8.269531 8.859375 -8.8125 C 8.816406 -9.351562 8.734375 -9.753906 8.609375 -10.015625 C 8.328125 -10.628906 7.835938 -10.976562 7.140625 -11.0625 C 7.054688 -11.0625 6.972656 -11.0625 6.890625 -11.0625 C 6.253906 -11.0625 5.710938 -10.847656 5.265625 -10.421875 L 4.875 -9.984375 L 4.875 -1.078125 L 0.921875 -1.078125 L 0.921875 -14.15625 L 4.875 -14.15625 L 4.875 -12.75 L 5.421875 -13.203125 C 5.992188 -13.691406 6.628906 -14.039062 7.328125 -14.25 Z M 7.328125 -14.25 "/></g></g></g><g fill="#000000" fill-opacity="1"><g transform="translate(714.156197, 290.472664)"><g><path d="M 4.9375 -14.125 C 5.320312 -14.226562 5.757812 -14.28125 6.25 -14.28125 C 6.476562 -14.28125 6.851562 -14.25 7.375 -14.1875 C 7.894531 -14.125 8.441406 -13.960938 9.015625 -13.703125 L 9.5 -13.453125 L 9.5 -14.15625 L 13.328125 -14.15625 L 13.328125 -7.234375 C 13.328125 -3.046875 13.285156 -0.707031 13.203125 -0.21875 C 12.960938 1.070312 12.351562 2.039062 11.375 2.6875 C 10.40625 3.34375 9.003906 3.703125 7.171875 3.765625 C 5.835938 3.804688 4.695312 3.675781 3.75 3.375 C 2.800781 3.082031 2.109375 2.804688 1.671875 2.546875 C 1.234375 2.296875 1.015625 2.140625 1.015625 2.078125 L 2.140625 -0.546875 C 2.160156 -0.546875 2.179688 -0.546875 2.203125 -0.546875 C 3.773438 0.265625 5.316406 0.671875 6.828125 0.671875 C 8.566406 0.671875 9.445312 0.03125 9.46875 -1.25 L 9.5 -2.78125 L 8.796875 -2.296875 C 7.953125 -1.765625 6.984375 -1.5 5.890625 -1.5 C 5.722656 -1.5 5.566406 -1.5 5.421875 -1.5 C 4.117188 -1.582031 3.085938 -2.03125 2.328125 -2.84375 C 1.410156 -3.832031 0.898438 -4.851562 0.796875 -5.90625 C 0.691406 -6.96875 0.640625 -7.601562 0.640625 -7.8125 C 0.617188 -9.46875 1 -10.847656 1.78125 -11.953125 C 2.125 -12.441406 2.570312 -12.878906 3.125 -13.265625 C 3.675781 -13.648438 4.28125 -13.9375 4.9375 -14.125 Z M 8.453125 -10.515625 C 7.921875 -10.753906 7.429688 -10.875 6.984375 -10.875 C 6.742188 -10.875 6.519531 -10.84375 6.3125 -10.78125 C 5.695312 -10.601562 5.273438 -10.21875 5.046875 -9.625 C 4.828125 -9.03125 4.71875 -8.5 4.71875 -8.03125 C 4.71875 -7.65625 4.769531 -7.273438 4.875 -6.890625 C 5.019531 -6.273438 5.285156 -5.796875 5.671875 -5.453125 C 6.054688 -5.109375 6.492188 -4.9375 6.984375 -4.9375 C 7.273438 -4.9375 7.628906 -5.035156 8.046875 -5.234375 C 8.460938 -5.441406 8.800781 -5.6875 9.0625 -5.96875 L 9.53125 -6.46875 L 9.5 -8.1875 C 9.5 -9.164062 9.457031 -9.734375 9.375 -9.890625 C 9.289062 -10.054688 8.984375 -10.265625 8.453125 -10.515625 Z M 8.453125 -10.515625 "/></g></g></g></svg>