<svg xmlns="http://www.w3.org/2000/svg" xmlns:xlink="http://www.w3.org/1999/xlink" width="500" zoomAndPan="magnify" viewBox="0 0 375 374.999991" height="500" preserveAspectRatio="xMidYMid meet" version="1.0"><defs><g/><clipPath id="1cac76d360"><path d="M 33 143 L 140 143 L 140 238.828125 L 33 238.828125 Z M 33 143 " clip-rule="nonzero"/></clipPath><clipPath id="551f6560b8"><path d="M 46 159 L 127.984375 159 L 127.984375 223.226562 L 46 223.226562 Z M 46 159 " clip-rule="nonzero"/></clipPath></defs><g clip-path="url(#1cac76d360)"><path fill="#000000" d="M 138.851562 167.300781 C 132.910156 136.730469 95.65625 136.21875 86.472656 164.796875 C 77.285156 136.21875 40.03125 136.730469 34.089844 167.300781 C 28.699219 195.035156 86.472656 238.792969 86.472656 238.792969 C 86.472656 238.792969 144.246094 195.035156 138.851562 167.300781 Z M 138.851562 167.300781 " fill-opacity="1" fill-rule="nonzero"/></g><g clip-path="url(#551f6560b8)"><path fill="#ffffff" d="M 47.667969 205.738281 C 52.15625 205.738281 56.644531 205.738281 61.132812 205.738281 C 61.902344 205.738281 62.53125 205.222656 62.757812 204.503906 C 65.5625 195.527344 68.367188 186.546875 71.171875 177.570312 C 70.089844 177.570312 69.007812 177.570312 67.925781 177.570312 C 71.292969 186.921875 74.660156 196.273438 78.027344 205.625 C 78.5625 207.117188 80.839844 207.34375 81.273438 205.625 C 85.015625 190.851562 88.757812 176.074219 92.496094 161.296875 C 91.414062 161.296875 90.332031 161.296875 89.25 161.296875 C 92.804688 181.496094 96.359375 201.699219 99.910156 221.898438 C 100.160156 223.308594 102.375 223.566406 102.988281 222.300781 C 105.691406 216.71875 108.394531 211.132812 111.09375 205.546875 C 111.769531 204.160156 109.003906 205.738281 110.820312 205.738281 C 112.59375 205.738281 114.363281 205.738281 116.136719 205.738281 C 119.3125 205.738281 122.488281 205.738281 125.664062 205.738281 C 127.835938 205.738281 127.835938 202.375 125.664062 202.375 C 120.425781 202.375 115.191406 202.375 109.953125 202.375 C 109.394531 202.375 108.75 202.683594 108.5 203.207031 C 105.691406 209.003906 102.886719 214.804688 100.082031 220.601562 C 101.109375 220.734375 102.132812 220.871094 103.15625 221.003906 C 99.605469 200.804688 96.050781 180.601562 92.496094 160.402344 C 92.199219 158.722656 89.640625 158.863281 89.25 160.402344 C 85.507812 175.179688 81.769531 189.953125 78.027344 204.730469 C 79.109375 204.730469 80.191406 204.730469 81.273438 204.730469 C 77.90625 195.378906 74.539062 186.027344 71.171875 176.675781 C 70.617188 175.125 68.445312 175.019531 67.925781 176.675781 C 65.121094 185.652344 62.316406 194.632812 59.511719 203.609375 C 60.050781 203.199219 60.59375 202.785156 61.132812 202.375 C 56.644531 202.375 52.15625 202.375 47.667969 202.375 C 45.496094 202.375 45.496094 205.738281 47.667969 205.738281 Z M 47.667969 205.738281 " fill-opacity="1" fill-rule="nonzero"/></g><g fill="#000000" fill-opacity="1"><g transform="translate(162.672093, 203.406183)"><g><path d="M 1.046875 -32.078125 L 1.046875 -35.46875 L 21.84375 -35.46875 L 21.84375 -32.078125 L 13.265625 -32.078125 L 13.265625 -0.109375 L 9.625 -0.109375 L 9.625 -32.078125 Z M 1.046875 -32.078125 "/></g></g></g><g fill="#000000" fill-opacity="1"><g transform="translate(185.550353, 203.406183)"><g><path d="M 7.59375 -30.78125 C 8.039062 -30.332031 8.265625 -29.796875 8.265625 -29.171875 C 8.265625 -28.515625 8.039062 -27.960938 7.59375 -27.515625 C 7.144531 -27.054688 6.609375 -26.828125 5.984375 -26.828125 C 5.316406 -26.828125 4.757812 -27.054688 4.3125 -27.515625 C 3.863281 -27.960938 3.640625 -28.515625 3.640625 -29.171875 C 3.640625 -29.796875 3.863281 -30.332031 4.3125 -30.78125 C 4.757812 -31.226562 5.316406 -31.453125 5.984375 -31.453125 C 6.609375 -31.453125 7.144531 -31.226562 7.59375 -30.78125 Z M 7.796875 0 L 4.15625 0 L 4.15625 -22.875 L 7.796875 -22.875 Z M 7.796875 0 "/></g></g></g><g fill="#000000" fill-opacity="1"><g transform="translate(197.457449, 203.406183)"><g><path d="M 32.921875 -0.109375 L 32.921875 -14.40625 C 32.921875 -16.757812 32.175781 -18.421875 30.6875 -19.390625 C 30.164062 -19.703125 29.363281 -19.859375 28.28125 -19.859375 C 27.207031 -19.859375 26.203125 -19.546875 25.265625 -18.921875 C 24.335938 -18.296875 23.59375 -17.5 23.03125 -16.53125 C 22.820312 -16.15625 22.632812 -15.738281 22.46875 -15.28125 C 22.46875 -15.007812 22.46875 -14.71875 22.46875 -14.40625 L 22.46875 -0.109375 L 18.828125 -0.109375 L 18.828125 -14.40625 C 18.828125 -16.757812 18.082031 -18.421875 16.59375 -19.390625 C 16.070312 -19.703125 15.273438 -19.859375 14.203125 -19.859375 C 13.117188 -19.859375 12.113281 -19.546875 11.1875 -18.921875 C 10.25 -18.296875 9.5 -17.5 8.9375 -16.53125 C 8.21875 -15.25 7.753906 -13.671875 7.546875 -11.796875 L 7.546875 -0.109375 L 3.90625 -0.109375 L 3.90625 -22.984375 L 7.546875 -22.984375 L 7.546875 -19.34375 C 8.234375 -20.519531 9.097656 -21.472656 10.140625 -22.203125 C 11.316406 -23.066406 12.703125 -23.5 14.296875 -23.5 C 15.890625 -23.5 17.171875 -23.257812 18.140625 -22.78125 C 19.117188 -22.257812 19.9375 -21.582031 20.59375 -20.75 C 20.9375 -20.257812 21.25 -19.722656 21.53125 -19.140625 C 22.21875 -20.390625 23.117188 -21.410156 24.234375 -22.203125 C 25.410156 -23.066406 26.796875 -23.5 28.390625 -23.5 C 29.984375 -23.5 31.265625 -23.257812 32.234375 -22.78125 C 33.210938 -22.257812 34.03125 -21.582031 34.6875 -20.75 C 35.9375 -19.113281 36.5625 -17 36.5625 -14.40625 L 36.5625 -0.109375 Z M 32.921875 -0.109375 "/></g></g></g><g fill="#000000" fill-opacity="1"><g transform="translate(237.13044, 203.406183)"><g><path d="M 26.265625 -11.953125 L 26.265625 -10.03125 L 6.140625 -10.03125 C 6.484375 -8.0625 7.4375 -6.453125 9 -5.203125 C 10.59375 -3.921875 12.359375 -3.28125 14.296875 -3.28125 C 15.617188 -3.28125 16.882812 -3.59375 18.09375 -4.21875 C 19.269531 -4.800781 20.257812 -5.628906 21.0625 -6.703125 L 25.21875 -6.703125 C 24.25 -4.523438 22.796875 -2.8125 20.859375 -1.5625 C 18.878906 -0.28125 16.882812 0.359375 14.875 0.359375 C 12.820312 0.359375 11.085938 0.046875 9.671875 -0.578125 C 8.210938 -1.203125 6.945312 -2.050781 5.875 -3.125 C 3.519531 -5.40625 2.34375 -8.210938 2.34375 -11.546875 C 2.34375 -14.835938 3.519531 -17.660156 5.875 -20.015625 C 8.195312 -22.335938 11.003906 -23.5 14.296875 -23.5 C 17.484375 -23.5 20.273438 -22.375 22.671875 -20.125 C 25.066406 -17.832031 26.265625 -15.109375 26.265625 -11.953125 Z M 22.40625 -13.15625 C 21.988281 -15.09375 21.019531 -16.703125 19.5 -17.984375 C 17.976562 -19.234375 16.242188 -19.859375 14.296875 -19.859375 C 11.316406 -19.859375 8.976562 -18.523438 7.28125 -15.859375 C 6.757812 -15.023438 6.394531 -14.125 6.1875 -13.15625 Z M 22.40625 -13.15625 "/></g></g></g><g fill="#000000" fill-opacity="1"><g transform="translate(265.468286, 203.406183)"><g><path d="M 7.546875 0 L 3.90625 0 L 3.90625 -39 L 7.546875 -39 Z M 7.546875 0 "/></g></g></g><g fill="#000000" fill-opacity="1"><g transform="translate(276.907422, 203.406183)"><g><path d="M 26.265625 -11.953125 L 26.265625 -10.03125 L 6.140625 -10.03125 C 6.484375 -8.0625 7.4375 -6.453125 9 -5.203125 C 10.59375 -3.921875 12.359375 -3.28125 14.296875 -3.28125 C 15.617188 -3.28125 16.882812 -3.59375 18.09375 -4.21875 C 19.269531 -4.800781 20.257812 -5.628906 21.0625 -6.703125 L 25.21875 -6.703125 C 24.25 -4.523438 22.796875 -2.8125 20.859375 -1.5625 C 18.878906 -0.28125 16.882812 0.359375 14.875 0.359375 C 12.820312 0.359375 11.085938 0.046875 9.671875 -0.578125 C 8.210938 -1.203125 6.945312 -2.050781 5.875 -3.125 C 3.519531 -5.40625 2.34375 -8.210938 2.34375 -11.546875 C 2.34375 -14.835938 3.519531 -17.660156 5.875 -20.015625 C 8.195312 -22.335938 11.003906 -23.5 14.296875 -23.5 C 17.484375 -23.5 20.273438 -22.375 22.671875 -20.125 C 25.066406 -17.832031 26.265625 -15.109375 26.265625 -11.953125 Z M 22.40625 -13.15625 C 21.988281 -15.09375 21.019531 -16.703125 19.5 -17.984375 C 17.976562 -19.234375 16.242188 -19.859375 14.296875 -19.859375 C 11.316406 -19.859375 8.976562 -18.523438 7.28125 -15.859375 C 6.757812 -15.023438 6.394531 -14.125 6.1875 -13.15625 Z M 22.40625 -13.15625 "/></g></g></g><g fill="#000000" fill-opacity="1"><g transform="translate(305.245269, 203.406183)"><g><path d="M 7.234375 -3.28125 C 8.128906 -2.65625 9.304688 -2.34375 10.765625 -2.34375 C 14.085938 -2.34375 15.75 -3.585938 15.75 -6.078125 C 15.75 -7.535156 14.554688 -8.644531 12.171875 -9.40625 C 11.160156 -9.757812 10.082031 -10.070312 8.9375 -10.34375 C 7.757812 -10.625 6.671875 -10.988281 5.671875 -11.4375 C 4.492188 -11.988281 3.609375 -12.679688 3.015625 -13.515625 C 2.421875 -14.347656 2.125 -15.335938 2.125 -16.484375 C 2.125 -18.773438 2.925781 -20.488281 4.53125 -21.625 C 6.125 -22.8125 8.03125 -23.40625 10.25 -23.40625 C 12.46875 -23.40625 14.300781 -22.953125 15.75 -22.046875 C 17.207031 -21.148438 18.195312 -19.539062 18.71875 -17.21875 L 14.8125 -17.21875 C 14.40625 -18.5 13.800781 -19.347656 13 -19.765625 C 12.238281 -20.179688 11.285156 -20.390625 10.140625 -20.390625 C 8.992188 -20.390625 8.023438 -20.144531 7.234375 -19.65625 C 6.398438 -19.132812 5.984375 -18.375 5.984375 -17.375 C 5.984375 -16.332031 6.328125 -15.566406 7.015625 -15.078125 C 7.679688 -14.628906 8.515625 -14.234375 9.515625 -13.890625 C 10.523438 -13.578125 11.617188 -13.296875 12.796875 -13.046875 C 13.941406 -12.773438 15.03125 -12.394531 16.0625 -11.90625 C 18.425781 -10.800781 19.609375 -9.015625 19.609375 -6.546875 C 19.609375 -4.085938 18.722656 -2.269531 16.953125 -1.09375 C 16.046875 -0.5 15.054688 -0.046875 13.984375 0.265625 C 12.941406 0.535156 11.800781 0.671875 10.5625 0.671875 C 5.25 0.671875 2.195312 -1.679688 1.40625 -6.390625 L 5.25 -6.390625 C 5.632812 -4.898438 6.296875 -3.863281 7.234375 -3.28125 Z M 7.234375 -3.28125 "/></g></g></g><g fill="#000000" fill-opacity="1"><g transform="translate(326.147683, 203.406183)"><g><path d="M 7.234375 -3.28125 C 8.128906 -2.65625 9.304688 -2.34375 10.765625 -2.34375 C 14.085938 -2.34375 15.75 -3.585938 15.75 -6.078125 C 15.75 -7.535156 14.554688 -8.644531 12.171875 -9.40625 C 11.160156 -9.757812 10.082031 -10.070312 8.9375 -10.34375 C 7.757812 -10.625 6.671875 -10.988281 5.671875 -11.4375 C 4.492188 -11.988281 3.609375 -12.679688 3.015625 -13.515625 C 2.421875 -14.347656 2.125 -15.335938 2.125 -16.484375 C 2.125 -18.773438 2.925781 -20.488281 4.53125 -21.625 C 6.125 -22.8125 8.03125 -23.40625 10.25 -23.40625 C 12.46875 -23.40625 14.300781 -22.953125 15.75 -22.046875 C 17.207031 -21.148438 18.195312 -19.539062 18.71875 -17.21875 L 14.8125 -17.21875 C 14.40625 -18.5 13.800781 -19.347656 13 -19.765625 C 12.238281 -20.179688 11.285156 -20.390625 10.140625 -20.390625 C 8.992188 -20.390625 8.023438 -20.144531 7.234375 -19.65625 C 6.398438 -19.132812 5.984375 -18.375 5.984375 -17.375 C 5.984375 -16.332031 6.328125 -15.566406 7.015625 -15.078125 C 7.679688 -14.628906 8.515625 -14.234375 9.515625 -13.890625 C 10.523438 -13.578125 11.617188 -13.296875 12.796875 -13.046875 C 13.941406 -12.773438 15.03125 -12.394531 16.0625 -11.90625 C 18.425781 -10.800781 19.609375 -9.015625 19.609375 -6.546875 C 19.609375 -4.085938 18.722656 -2.269531 16.953125 -1.09375 C 16.046875 -0.5 15.054688 -0.046875 13.984375 0.265625 C 12.941406 0.535156 11.800781 0.671875 10.5625 0.671875 C 5.25 0.671875 2.195312 -1.679688 1.40625 -6.390625 L 5.25 -6.390625 C 5.632812 -4.898438 6.296875 -3.863281 7.234375 -3.28125 Z M 7.234375 -3.28125 "/></g></g></g><g fill="#000000" fill-opacity="1"><g transform="translate(302.535468, 221.830152)"><g><path d="M 0.640625 -0.5625 L 0.640625 -10.078125 L 2.84375 -10.046875 L 2.8125 -2.5625 L 7.015625 -2.5625 L 7.015625 -0.5625 Z M 0.640625 -0.5625 "/></g></g></g><g fill="#000000" fill-opacity="1"><g transform="translate(311.189659, 221.830152)"><g><path d="M 0.484375 -7.375 L 2.53125 -7.375 L 2.53125 -0.5625 L 0.484375 -0.5625 Z M 0.484375 -10.546875 L 2.53125 -10.546875 L 2.53125 -8.890625 L 0.484375 -8.890625 Z M 0.484375 -10.546875 "/></g></g></g><g fill="#000000" fill-opacity="1"><g transform="translate(315.364929, 221.830152)"><g><path d="M -0.203125 -7.375 C -0.203125 -7.382812 -0.203125 -7.390625 -0.203125 -7.390625 C -0.203125 -7.421875 -0.175781 -7.441406 -0.125 -7.453125 C -0.0390625 -7.460938 0.265625 -7.46875 0.796875 -7.46875 L 1.84375 -7.453125 L 2.46875 -5.609375 C 2.914062 -4.273438 3.15625 -3.523438 3.1875 -3.359375 C 3.25 -3.148438 3.296875 -3.046875 3.328125 -3.046875 C 3.347656 -3.066406 3.398438 -3.226562 3.484375 -3.53125 C 3.503906 -3.582031 3.578125 -3.820312 3.703125 -4.25 C 3.835938 -4.675781 3.945312 -5.03125 4.03125 -5.3125 C 4.320312 -6.195312 4.503906 -6.769531 4.578125 -7.03125 L 4.703125 -7.46875 L 5.734375 -7.46875 C 6.421875 -7.46875 6.765625 -7.445312 6.765625 -7.40625 C 6.765625 -7.363281 6.550781 -6.703125 6.125 -5.421875 C 5.707031 -4.140625 5.34375 -3.019531 5.03125 -2.0625 L 4.53125 -0.59375 L 2.09375 -0.5625 L 2.015625 -0.75 C 1.460938 -2.332031 0.722656 -4.539062 -0.203125 -7.375 Z M -0.203125 -7.375 "/></g></g></g><g fill="#000000" fill-opacity="1"><g transform="translate(323.203316, 221.830152)"><g><path d="M 0.484375 -7.375 L 2.53125 -7.375 L 2.53125 -0.5625 L 0.484375 -0.5625 Z M 0.484375 -10.546875 L 2.53125 -10.546875 L 2.53125 -8.890625 L 0.484375 -8.890625 Z M 0.484375 -10.546875 "/></g></g></g><g fill="#000000" fill-opacity="1"><g transform="translate(327.378587, 221.830152)"><g><path d="M 3.828125 -7.4375 C 3.984375 -7.5 4.207031 -7.53125 4.5 -7.53125 C 4.519531 -7.53125 4.617188 -7.523438 4.796875 -7.515625 C 4.972656 -7.515625 5.15625 -7.488281 5.34375 -7.4375 C 5.519531 -7.375 5.707031 -7.257812 5.90625 -7.09375 C 6.101562 -6.9375 6.253906 -6.769531 6.359375 -6.59375 C 6.503906 -6.300781 6.597656 -5.984375 6.640625 -5.640625 C 6.691406 -5.296875 6.71875 -4.425781 6.71875 -3.03125 L 6.71875 -0.5625 L 4.65625 -0.5625 L 4.65625 -2.671875 C 4.65625 -3.671875 4.644531 -4.3125 4.625 -4.59375 C 4.601562 -4.882812 4.5625 -5.097656 4.5 -5.234375 C 4.34375 -5.554688 4.085938 -5.738281 3.734375 -5.78125 C 3.679688 -5.78125 3.632812 -5.78125 3.59375 -5.78125 C 3.269531 -5.78125 2.988281 -5.664062 2.75 -5.4375 L 2.546875 -5.21875 L 2.546875 -0.5625 L 0.484375 -0.5625 L 0.484375 -7.390625 L 2.546875 -7.390625 L 2.546875 -6.65625 L 2.828125 -6.890625 C 3.128906 -7.148438 3.460938 -7.332031 3.828125 -7.4375 Z M 3.828125 -7.4375 "/></g></g></g><g fill="#000000" fill-opacity="1"><g transform="translate(335.760843, 221.830152)"><g><path d="M 2.578125 -7.375 C 2.773438 -7.425781 3.003906 -7.453125 3.265625 -7.453125 C 3.378906 -7.453125 3.570312 -7.4375 3.84375 -7.40625 C 4.113281 -7.375 4.398438 -7.289062 4.703125 -7.15625 L 4.953125 -7.03125 L 4.953125 -7.390625 L 6.953125 -7.390625 L 6.953125 -3.78125 C 6.953125 -1.59375 6.929688 -0.367188 6.890625 -0.109375 C 6.765625 0.554688 6.445312 1.0625 5.9375 1.40625 C 5.4375 1.75 4.707031 1.9375 3.75 1.96875 C 3.050781 1.988281 2.453125 1.921875 1.953125 1.765625 C 1.460938 1.609375 1.101562 1.460938 0.875 1.328125 C 0.644531 1.203125 0.53125 1.125 0.53125 1.09375 L 1.125 -0.28125 C 1.132812 -0.28125 1.144531 -0.28125 1.15625 -0.28125 C 1.976562 0.144531 2.78125 0.359375 3.5625 0.359375 C 4.46875 0.359375 4.925781 0.0195312 4.9375 -0.65625 L 4.953125 -1.453125 L 4.59375 -1.203125 C 4.15625 -0.921875 3.648438 -0.78125 3.078125 -0.78125 C 2.984375 -0.78125 2.898438 -0.78125 2.828125 -0.78125 C 2.148438 -0.820312 1.613281 -1.054688 1.21875 -1.484375 C 0.738281 -1.992188 0.472656 -2.523438 0.421875 -3.078125 C 0.367188 -3.640625 0.34375 -3.972656 0.34375 -4.078125 C 0.320312 -4.941406 0.515625 -5.660156 0.921875 -6.234375 C 1.109375 -6.492188 1.34375 -6.722656 1.625 -6.921875 C 1.914062 -7.128906 2.234375 -7.28125 2.578125 -7.375 Z M 4.421875 -5.484375 C 4.140625 -5.617188 3.878906 -5.6875 3.640625 -5.6875 C 3.515625 -5.6875 3.398438 -5.664062 3.296875 -5.625 C 2.972656 -5.53125 2.753906 -5.328125 2.640625 -5.015625 C 2.523438 -4.710938 2.46875 -4.4375 2.46875 -4.1875 C 2.46875 -4 2.492188 -3.800781 2.546875 -3.59375 C 2.617188 -3.28125 2.753906 -3.03125 2.953125 -2.84375 C 3.160156 -2.664062 3.390625 -2.578125 3.640625 -2.578125 C 3.796875 -2.578125 3.984375 -2.628906 4.203125 -2.734375 C 4.421875 -2.835938 4.597656 -2.96875 4.734375 -3.125 L 4.96875 -3.375 L 4.953125 -4.265625 C 4.953125 -4.785156 4.929688 -5.085938 4.890625 -5.171875 C 4.847656 -5.253906 4.691406 -5.359375 4.421875 -5.484375 Z M 4.421875 -5.484375 "/></g></g></g></svg>