<svg xmlns="http://www.w3.org/2000/svg" xmlns:xlink="http://www.w3.org/1999/xlink" width="500" zoomAndPan="magnify" viewBox="0 0 375 374.999991" height="500" preserveAspectRatio="xMidYMid meet" version="1.0"><defs><g/><clipPath id="0791ccac5b"><path d="M 112 94 L 264 94 L 264 229.933594 L 112 229.933594 Z M 112 94 " clip-rule="nonzero"/></clipPath><clipPath id="caaf2edcc2"><path d="M 129 116.074219 L 246 116.074219 L 246 209 L 129 209 Z M 129 116.074219 " clip-rule="nonzero"/></clipPath></defs><g clip-path="url(#0791ccac5b)"><path fill="#242424" d="M 262.523438 127.628906 C 254.015625 83.867188 200.683594 83.136719 187.535156 124.046875 C 174.386719 83.136719 121.054688 83.867188 112.550781 127.628906 C 104.828125 167.335938 187.535156 229.976562 187.535156 229.976562 C 187.535156 229.976562 270.242188 167.335938 262.523438 127.628906 Z M 262.523438 127.628906 " fill-opacity="1" fill-rule="nonzero"/></g><g clip-path="url(#caaf2edcc2)"><path fill="#efefef" d="M 131.546875 183.53125 C 137.988281 183.53125 144.429688 183.53125 150.871094 183.53125 C 151.972656 183.53125 152.878906 182.785156 153.199219 181.753906 C 157.226562 168.875 161.25 155.992188 165.277344 143.113281 C 163.722656 143.113281 162.171875 143.113281 160.617188 143.113281 C 165.449219 156.53125 170.28125 169.949219 175.109375 183.367188 C 175.878906 185.503906 179.144531 185.828125 179.769531 183.367188 C 185.136719 162.164062 190.503906 140.964844 195.871094 119.765625 C 194.316406 119.765625 192.765625 119.765625 191.210938 119.765625 C 196.3125 148.746094 201.410156 177.730469 206.507812 206.714844 C 206.863281 208.738281 210.042969 209.109375 210.921875 207.289062 C 214.800781 199.277344 218.679688 191.265625 222.554688 183.253906 C 223.519531 181.261719 219.550781 183.53125 222.164062 183.53125 C 224.703125 183.53125 227.246094 183.53125 229.785156 183.53125 C 234.34375 183.53125 238.898438 183.53125 243.457031 183.53125 C 246.570312 183.53125 246.570312 178.699219 243.457031 178.699219 C 235.941406 178.699219 228.429688 178.699219 220.914062 178.699219 C 220.113281 178.699219 219.191406 179.148438 218.828125 179.894531 C 214.804688 188.214844 210.777344 196.535156 206.753906 204.851562 C 208.222656 205.042969 209.695312 205.238281 211.167969 205.429688 C 206.066406 176.445312 200.96875 147.464844 195.871094 118.480469 C 195.445312 116.070312 191.773438 116.269531 191.210938 118.480469 C 185.84375 139.679688 180.476562 160.882812 175.109375 182.082031 C 176.664062 182.082031 178.214844 182.082031 179.769531 182.082031 C 174.9375 168.664062 170.105469 155.246094 165.277344 141.828125 C 164.476562 139.605469 161.359375 139.453125 160.617188 141.828125 C 156.59375 154.707031 152.566406 167.589844 148.542969 180.472656 C 149.320312 179.882812 150.09375 179.289062 150.871094 178.699219 C 144.429688 178.699219 137.988281 178.699219 131.546875 178.699219 C 128.433594 178.699219 128.433594 183.53125 131.546875 183.53125 Z M 131.546875 183.53125 " fill-opacity="1" fill-rule="nonzero"/></g><g fill="#000000" fill-opacity="1"><g transform="translate(70.900184, 271.839781)"><g><path d="M 0.78125 -24.296875 L 0.78125 -26.859375 L 16.53125 -26.859375 L 16.53125 -24.296875 L 10.046875 -24.296875 L 10.046875 -0.078125 L 7.28125 -0.078125 L 7.28125 -24.296875 Z M 0.78125 -24.296875 "/></g></g></g><g fill="#000000" fill-opacity="1"><g transform="translate(88.225187, 271.839781)"><g><path d="M 5.75 -23.3125 C 6.09375 -22.96875 6.265625 -22.5625 6.265625 -22.09375 C 6.265625 -21.59375 6.09375 -21.171875 5.75 -20.828125 C 5.40625 -20.484375 5 -20.3125 4.53125 -20.3125 C 4.03125 -20.3125 3.609375 -20.484375 3.265625 -20.828125 C 2.921875 -21.171875 2.75 -21.59375 2.75 -22.09375 C 2.75 -22.5625 2.921875 -22.96875 3.265625 -23.3125 C 3.609375 -23.65625 4.03125 -23.828125 4.53125 -23.828125 C 5 -23.828125 5.40625 -23.65625 5.75 -23.3125 Z M 5.90625 0 L 3.15625 0 L 3.15625 -17.328125 L 5.90625 -17.328125 Z M 5.90625 0 "/></g></g></g><g fill="#000000" fill-opacity="1"><g transform="translate(97.242066, 271.839781)"><g><path d="M 24.921875 -0.078125 L 24.921875 -10.90625 C 24.921875 -12.6875 24.359375 -13.945312 23.234375 -14.6875 C 22.835938 -14.925781 22.234375 -15.046875 21.421875 -15.046875 C 20.609375 -15.046875 19.847656 -14.804688 19.140625 -14.328125 C 18.429688 -13.859375 17.863281 -13.253906 17.4375 -12.515625 C 17.28125 -12.234375 17.140625 -11.921875 17.015625 -11.578125 C 17.015625 -11.367188 17.015625 -11.144531 17.015625 -10.90625 L 17.015625 -0.078125 L 14.25 -0.078125 L 14.25 -10.90625 C 14.25 -12.6875 13.6875 -13.945312 12.5625 -14.6875 C 12.164062 -14.925781 11.5625 -15.046875 10.75 -15.046875 C 9.9375 -15.046875 9.175781 -14.804688 8.46875 -14.328125 C 7.757812 -13.859375 7.191406 -13.253906 6.765625 -12.515625 C 6.222656 -11.546875 5.867188 -10.351562 5.703125 -8.9375 L 5.703125 -0.078125 L 2.953125 -0.078125 L 2.953125 -17.40625 L 5.703125 -17.40625 L 5.703125 -14.640625 C 6.234375 -15.535156 6.890625 -16.257812 7.671875 -16.8125 C 8.566406 -17.46875 9.617188 -17.796875 10.828125 -17.796875 C 12.035156 -17.796875 13.003906 -17.613281 13.734375 -17.25 C 14.472656 -16.851562 15.09375 -16.335938 15.59375 -15.703125 C 15.851562 -15.335938 16.085938 -14.929688 16.296875 -14.484375 C 16.828125 -15.429688 17.507812 -16.207031 18.34375 -16.8125 C 19.238281 -17.46875 20.289062 -17.796875 21.5 -17.796875 C 22.707031 -17.796875 23.675781 -17.613281 24.40625 -17.25 C 25.144531 -16.851562 25.765625 -16.335938 26.265625 -15.703125 C 27.210938 -14.472656 27.6875 -12.875 27.6875 -10.90625 L 27.6875 -0.078125 Z M 24.921875 -0.078125 "/></g></g></g><g fill="#000000" fill-opacity="1"><g transform="translate(127.285197, 271.839781)"><g><path d="M 19.890625 -9.0625 L 19.890625 -7.59375 L 4.640625 -7.59375 C 4.910156 -6.101562 5.632812 -4.882812 6.8125 -3.9375 C 8.019531 -2.96875 9.359375 -2.484375 10.828125 -2.484375 C 11.828125 -2.484375 12.785156 -2.71875 13.703125 -3.1875 C 14.597656 -3.632812 15.347656 -4.265625 15.953125 -5.078125 L 19.09375 -5.078125 C 18.363281 -3.421875 17.265625 -2.125 15.796875 -1.1875 C 14.296875 -0.207031 12.785156 0.28125 11.265625 0.28125 C 9.710938 0.28125 8.398438 0.0390625 7.328125 -0.4375 C 6.222656 -0.90625 5.265625 -1.546875 4.453125 -2.359375 C 2.660156 -4.097656 1.765625 -6.222656 1.765625 -8.734375 C 1.765625 -11.234375 2.660156 -13.375 4.453125 -15.15625 C 6.210938 -16.914062 8.335938 -17.796875 10.828125 -17.796875 C 13.242188 -17.796875 15.359375 -16.941406 17.171875 -15.234375 C 18.984375 -13.503906 19.890625 -11.445312 19.890625 -9.0625 Z M 16.96875 -9.96875 C 16.65625 -11.4375 15.921875 -12.65625 14.765625 -13.625 C 13.609375 -14.570312 12.296875 -15.046875 10.828125 -15.046875 C 8.566406 -15.046875 6.796875 -14.035156 5.515625 -12.015625 C 5.117188 -11.378906 4.84375 -10.695312 4.6875 -9.96875 Z M 16.96875 -9.96875 "/></g></g></g><g fill="#000000" fill-opacity="1"><g transform="translate(148.744573, 271.839781)"><g><path d="M 5.703125 0 L 2.953125 0 L 2.953125 -29.53125 L 5.703125 -29.53125 Z M 5.703125 0 "/></g></g></g><g fill="#000000" fill-opacity="1"><g transform="translate(157.407075, 271.839781)"><g><path d="M 19.890625 -9.0625 L 19.890625 -7.59375 L 4.640625 -7.59375 C 4.910156 -6.101562 5.632812 -4.882812 6.8125 -3.9375 C 8.019531 -2.96875 9.359375 -2.484375 10.828125 -2.484375 C 11.828125 -2.484375 12.785156 -2.71875 13.703125 -3.1875 C 14.597656 -3.632812 15.347656 -4.265625 15.953125 -5.078125 L 19.09375 -5.078125 C 18.363281 -3.421875 17.265625 -2.125 15.796875 -1.1875 C 14.296875 -0.207031 12.785156 0.28125 11.265625 0.28125 C 9.710938 0.28125 8.398438 0.0390625 7.328125 -0.4375 C 6.222656 -0.90625 5.265625 -1.546875 4.453125 -2.359375 C 2.660156 -4.097656 1.765625 -6.222656 1.765625 -8.734375 C 1.765625 -11.234375 2.660156 -13.375 4.453125 -15.15625 C 6.210938 -16.914062 8.335938 -17.796875 10.828125 -17.796875 C 13.242188 -17.796875 15.359375 -16.941406 17.171875 -15.234375 C 18.984375 -13.503906 19.890625 -11.445312 19.890625 -9.0625 Z M 16.96875 -9.96875 C 16.65625 -11.4375 15.921875 -12.65625 14.765625 -13.625 C 13.609375 -14.570312 12.296875 -15.046875 10.828125 -15.046875 C 8.566406 -15.046875 6.796875 -14.035156 5.515625 -12.015625 C 5.117188 -11.378906 4.84375 -10.695312 4.6875 -9.96875 Z M 16.96875 -9.96875 "/></g></g></g><g fill="#000000" fill-opacity="1"><g transform="translate(178.86645, 271.839781)"><g><path d="M 5.46875 -2.484375 C 6.15625 -2.003906 7.050781 -1.765625 8.15625 -1.765625 C 10.675781 -1.765625 11.9375 -2.710938 11.9375 -4.609375 C 11.9375 -5.710938 11.03125 -6.550781 9.21875 -7.125 C 8.457031 -7.382812 7.640625 -7.617188 6.765625 -7.828125 C 5.878906 -8.046875 5.054688 -8.320312 4.296875 -8.65625 C 3.398438 -9.082031 2.726562 -9.609375 2.28125 -10.234375 C 1.832031 -10.867188 1.609375 -11.617188 1.609375 -12.484375 C 1.609375 -14.210938 2.210938 -15.507812 3.421875 -16.375 C 4.628906 -17.269531 6.070312 -17.71875 7.75 -17.71875 C 9.4375 -17.71875 10.832031 -17.375 11.9375 -16.6875 C 13.03125 -16.007812 13.773438 -14.789062 14.171875 -13.03125 L 11.21875 -13.03125 C 10.90625 -14 10.445312 -14.644531 9.84375 -14.96875 C 9.269531 -15.28125 8.546875 -15.4375 7.671875 -15.4375 C 6.804688 -15.4375 6.070312 -15.253906 5.46875 -14.890625 C 4.84375 -14.492188 4.53125 -13.914062 4.53125 -13.15625 C 4.53125 -12.363281 4.789062 -11.785156 5.3125 -11.421875 C 5.8125 -11.078125 6.441406 -10.773438 7.203125 -10.515625 C 7.960938 -10.273438 8.789062 -10.066406 9.6875 -9.890625 C 10.550781 -9.671875 11.378906 -9.378906 12.171875 -9.015625 C 13.953125 -8.171875 14.84375 -6.820312 14.84375 -4.96875 C 14.84375 -3.101562 14.175781 -1.722656 12.84375 -0.828125 C 12.15625 -0.378906 11.40625 -0.0351562 10.59375 0.203125 C 9.800781 0.410156 8.9375 0.515625 8 0.515625 C 3.976562 0.515625 1.664062 -1.269531 1.0625 -4.84375 L 3.984375 -4.84375 C 4.265625 -3.71875 4.757812 -2.929688 5.46875 -2.484375 Z M 5.46875 -2.484375 "/></g></g></g><g fill="#000000" fill-opacity="1"><g transform="translate(194.695208, 271.839781)"><g><path d="M 5.46875 -2.484375 C 6.15625 -2.003906 7.050781 -1.765625 8.15625 -1.765625 C 10.675781 -1.765625 11.9375 -2.710938 11.9375 -4.609375 C 11.9375 -5.710938 11.03125 -6.550781 9.21875 -7.125 C 8.457031 -7.382812 7.640625 -7.617188 6.765625 -7.828125 C 5.878906 -8.046875 5.054688 -8.320312 4.296875 -8.65625 C 3.398438 -9.082031 2.726562 -9.609375 2.28125 -10.234375 C 1.832031 -10.867188 1.609375 -11.617188 1.609375 -12.484375 C 1.609375 -14.210938 2.210938 -15.507812 3.421875 -16.375 C 4.628906 -17.269531 6.070312 -17.71875 7.75 -17.71875 C 9.4375 -17.71875 10.832031 -17.375 11.9375 -16.6875 C 13.03125 -16.007812 13.773438 -14.789062 14.171875 -13.03125 L 11.21875 -13.03125 C 10.90625 -14 10.445312 -14.644531 9.84375 -14.96875 C 9.269531 -15.28125 8.546875 -15.4375 7.671875 -15.4375 C 6.804688 -15.4375 6.070312 -15.253906 5.46875 -14.890625 C 4.84375 -14.492188 4.53125 -13.914062 4.53125 -13.15625 C 4.53125 -12.363281 4.789062 -11.785156 5.3125 -11.421875 C 5.8125 -11.078125 6.441406 -10.773438 7.203125 -10.515625 C 7.960938 -10.273438 8.789062 -10.066406 9.6875 -9.890625 C 10.550781 -9.671875 11.378906 -9.378906 12.171875 -9.015625 C 13.953125 -8.171875 14.84375 -6.820312 14.84375 -4.96875 C 14.84375 -3.101562 14.175781 -1.722656 12.84375 -0.828125 C 12.15625 -0.378906 11.40625 -0.0351562 10.59375 0.203125 C 9.800781 0.410156 8.9375 0.515625 8 0.515625 C 3.976562 0.515625 1.664062 -1.269531 1.0625 -4.84375 L 3.984375 -4.84375 C 4.265625 -3.71875 4.757812 -2.929688 5.46875 -2.484375 Z M 5.46875 -2.484375 "/></g></g></g><g fill="#000000" fill-opacity="1"><g transform="translate(210.523965, 271.839781)"><g><path d="M 5.703125 -2.75 L 15.28125 -2.75 L 15.28125 0 L 2.953125 0 L 2.953125 -26.78125 L 5.703125 -26.78125 Z M 5.703125 -2.75 "/></g></g></g><g fill="#000000" fill-opacity="1"><g transform="translate(226.588962, 271.839781)"><g><path d="M 5.75 -23.3125 C 6.09375 -22.96875 6.265625 -22.5625 6.265625 -22.09375 C 6.265625 -21.59375 6.09375 -21.171875 5.75 -20.828125 C 5.40625 -20.484375 5 -20.3125 4.53125 -20.3125 C 4.03125 -20.3125 3.609375 -20.484375 3.265625 -20.828125 C 2.921875 -21.171875 2.75 -21.59375 2.75 -22.09375 C 2.75 -22.5625 2.921875 -22.96875 3.265625 -23.3125 C 3.609375 -23.65625 4.03125 -23.828125 4.53125 -23.828125 C 5 -23.828125 5.40625 -23.65625 5.75 -23.3125 Z M 5.90625 0 L 3.15625 0 L 3.15625 -17.328125 L 5.90625 -17.328125 Z M 5.90625 0 "/></g></g></g><g fill="#000000" fill-opacity="1"><g transform="translate(235.605842, 271.839781)"><g><path d="M 8.390625 1.65625 L 0.390625 -17.328125 L 3.390625 -17.328125 L 8.390625 -4.453125 L 13.34375 -17.328125 L 16.34375 -17.328125 Z M 8.390625 1.65625 "/></g></g></g><g fill="#000000" fill-opacity="1"><g transform="translate(252.340216, 271.839781)"><g><path d="M 5.75 -23.3125 C 6.09375 -22.96875 6.265625 -22.5625 6.265625 -22.09375 C 6.265625 -21.59375 6.09375 -21.171875 5.75 -20.828125 C 5.40625 -20.484375 5 -20.3125 4.53125 -20.3125 C 4.03125 -20.3125 3.609375 -20.484375 3.265625 -20.828125 C 2.921875 -21.171875 2.75 -21.59375 2.75 -22.09375 C 2.75 -22.5625 2.921875 -22.96875 3.265625 -23.3125 C 3.609375 -23.65625 4.03125 -23.828125 4.53125 -23.828125 C 5 -23.828125 5.40625 -23.65625 5.75 -23.3125 Z M 5.90625 0 L 3.15625 0 L 3.15625 -17.328125 L 5.90625 -17.328125 Z M 5.90625 0 "/></g></g></g><g fill="#000000" fill-opacity="1"><g transform="translate(261.357095, 271.839781)"><g><path d="M 14.921875 0 L 14.921875 -10.828125 C 14.921875 -11.953125 14.671875 -12.921875 14.171875 -13.734375 C 13.648438 -14.523438 12.796875 -14.921875 11.609375 -14.921875 C 10.429688 -14.921875 9.472656 -14.695312 8.734375 -14.25 C 8.003906 -13.800781 7.414062 -13.222656 6.96875 -12.515625 C 6.125 -11.203125 5.703125 -9.445312 5.703125 -7.25 L 5.703125 0 L 2.953125 0 L 2.953125 -17.328125 L 5.703125 -17.328125 L 5.703125 -14.328125 C 6.285156 -15.304688 7.023438 -16.109375 7.921875 -16.734375 C 8.859375 -17.359375 9.945312 -17.671875 11.1875 -17.671875 C 12.414062 -17.671875 13.410156 -17.503906 14.171875 -17.171875 C 14.929688 -16.796875 15.578125 -16.304688 16.109375 -15.703125 C 17.148438 -14.472656 17.671875 -12.847656 17.671875 -10.828125 L 17.671875 0 Z M 14.921875 0 "/></g></g></g><g fill="#000000" fill-opacity="1"><g transform="translate(281.398972, 271.839781)"><g><path d="M 16.96875 -8.65625 C 16.96875 -10.34375 16.390625 -11.816406 15.234375 -13.078125 C 14.054688 -14.335938 12.601562 -14.96875 10.875 -14.96875 C 9.1875 -14.96875 7.738281 -14.335938 6.53125 -13.078125 C 5.351562 -11.835938 4.765625 -10.363281 4.765625 -8.65625 C 4.765625 -6.957031 5.351562 -5.488281 6.53125 -4.25 C 7.738281 -2.988281 9.1875 -2.359375 10.875 -2.359375 C 12.601562 -2.359375 14.054688 -2.988281 15.234375 -4.25 C 16.390625 -5.507812 16.96875 -6.976562 16.96875 -8.65625 Z M 4.6875 2.359375 C 4.945312 3.441406 5.507812 4.398438 6.375 5.234375 C 7.582031 6.472656 9.039062 7.09375 10.75 7.09375 C 12.457031 7.09375 13.925781 6.472656 15.15625 5.234375 C 16.363281 4.023438 16.96875 2.566406 16.96875 0.859375 L 16.96875 -2.90625 C 16.84375 -2.726562 16.695312 -2.546875 16.53125 -2.359375 C 14.882812 -0.523438 12.863281 0.390625 10.46875 0.390625 C 8.050781 0.390625 6.03125 -0.523438 4.40625 -2.359375 C 2.8125 -4.148438 2.015625 -6.25 2.015625 -8.65625 C 2.015625 -11.070312 2.8125 -13.175781 4.40625 -14.96875 C 6.03125 -16.800781 8.050781 -17.71875 10.46875 -17.71875 C 12.78125 -17.71875 14.800781 -16.800781 16.53125 -14.96875 C 16.695312 -14.78125 16.84375 -14.59375 16.96875 -14.40625 L 16.96875 -17.328125 L 19.734375 -17.328125 L 19.734375 0.859375 C 19.734375 3.328125 18.851562 5.441406 17.09375 7.203125 C 15.332031 8.960938 13.21875 9.84375 10.75 9.84375 C 8.28125 9.84375 6.164062 8.960938 4.40625 7.203125 C 3.019531 5.816406 2.179688 4.203125 1.890625 2.359375 Z M 4.6875 2.359375 "/></g></g></g><g fill="#000000" fill-opacity="1"><g transform="translate(211.422383, 292.56959)"><g><path d="M 0.59375 0 L 0.59375 -8.734375 L 1.5 -8.734375 L 1.5 -5.109375 L 1.515625 -5.109375 C 1.765625 -5.472656 2.078125 -5.75 2.453125 -5.9375 C 2.835938 -6.132812 3.289062 -6.234375 3.8125 -6.234375 C 4.5 -6.234375 5.039062 -6.023438 5.4375 -5.609375 C 5.832031 -5.191406 6.03125 -4.613281 6.03125 -3.875 L 6.03125 0 L 5.125 0 L 5.125 -3.78125 C 5.125 -4.289062 4.984375 -4.695312 4.703125 -5 C 4.421875 -5.300781 4.039062 -5.453125 3.5625 -5.453125 C 3.15625 -5.453125 2.796875 -5.363281 2.484375 -5.1875 C 2.179688 -5.007812 1.941406 -4.765625 1.765625 -4.453125 C 1.585938 -4.148438 1.5 -3.796875 1.5 -3.390625 L 1.5 0 Z M 0.59375 0 "/></g></g></g><g fill="#000000" fill-opacity="1"><g transform="translate(218.854123, 292.56959)"><g><path d="M 3.671875 0.234375 C 3.035156 0.234375 2.46875 0.09375 1.96875 -0.1875 C 1.46875 -0.476562 1.070312 -0.867188 0.78125 -1.359375 C 0.5 -1.859375 0.359375 -2.425781 0.359375 -3.0625 C 0.359375 -3.675781 0.488281 -4.222656 0.75 -4.703125 C 1.007812 -5.179688 1.367188 -5.554688 1.828125 -5.828125 C 2.296875 -6.097656 2.828125 -6.234375 3.421875 -6.234375 C 4.003906 -6.234375 4.515625 -6.097656 4.953125 -5.828125 C 5.390625 -5.554688 5.726562 -5.179688 5.96875 -4.703125 C 6.21875 -4.222656 6.347656 -3.671875 6.359375 -3.046875 C 6.359375 -2.992188 6.359375 -2.9375 6.359375 -2.875 C 6.359375 -2.820312 6.351562 -2.765625 6.34375 -2.703125 L 1.296875 -2.703125 C 1.335938 -2.285156 1.460938 -1.914062 1.671875 -1.59375 C 1.890625 -1.269531 2.171875 -1.019531 2.515625 -0.84375 C 2.867188 -0.664062 3.257812 -0.578125 3.6875 -0.578125 C 4.144531 -0.578125 4.5625 -0.6875 4.9375 -0.90625 C 5.3125 -1.125 5.582031 -1.394531 5.75 -1.71875 L 6.53125 -1.40625 C 6.40625 -1.082031 6.203125 -0.796875 5.921875 -0.546875 C 5.640625 -0.296875 5.304688 -0.101562 4.921875 0.03125 C 4.535156 0.164062 4.117188 0.234375 3.671875 0.234375 Z M 1.3125 -3.484375 L 5.390625 -3.484375 C 5.335938 -4.097656 5.128906 -4.570312 4.765625 -4.90625 C 4.410156 -5.238281 3.957031 -5.40625 3.40625 -5.40625 C 2.851562 -5.40625 2.382812 -5.226562 2 -4.875 C 1.625 -4.519531 1.394531 -4.054688 1.3125 -3.484375 Z M 1.3125 -3.484375 "/></g></g></g><g fill="#000000" fill-opacity="1"><g transform="translate(226.535151, 292.56959)"><g><path d="M 2.546875 0.234375 C 2.097656 0.234375 1.695312 0.15625 1.34375 0 C 1 -0.144531 0.726562 -0.351562 0.53125 -0.625 C 0.332031 -0.894531 0.234375 -1.207031 0.234375 -1.5625 C 0.234375 -2.050781 0.441406 -2.472656 0.859375 -2.828125 C 1.273438 -3.179688 1.96875 -3.414062 2.9375 -3.53125 L 4.421875 -3.71875 C 4.578125 -3.726562 4.695312 -3.773438 4.78125 -3.859375 C 4.875 -3.941406 4.921875 -4.050781 4.921875 -4.1875 C 4.921875 -4.550781 4.753906 -4.847656 4.421875 -5.078125 C 4.097656 -5.304688 3.675781 -5.421875 3.15625 -5.421875 C 2.78125 -5.421875 2.445312 -5.347656 2.15625 -5.203125 C 1.863281 -5.066406 1.632812 -4.882812 1.46875 -4.65625 C 1.300781 -4.4375 1.207031 -4.210938 1.1875 -3.984375 L 0.375 -4.328125 C 0.40625 -4.660156 0.546875 -4.96875 0.796875 -5.25 C 1.046875 -5.539062 1.378906 -5.773438 1.796875 -5.953125 C 2.210938 -6.140625 2.675781 -6.234375 3.1875 -6.234375 C 3.707031 -6.234375 4.160156 -6.144531 4.546875 -5.96875 C 4.941406 -5.789062 5.25 -5.535156 5.46875 -5.203125 C 5.695312 -4.878906 5.8125 -4.488281 5.8125 -4.03125 L 5.8125 -1 C 5.8125 -0.875 5.835938 -0.773438 5.890625 -0.703125 C 5.953125 -0.628906 6.03125 -0.59375 6.125 -0.59375 C 6.3125 -0.59375 6.472656 -0.710938 6.609375 -0.953125 L 7.09375 -0.375 C 6.96875 -0.195312 6.789062 -0.0507812 6.5625 0.0625 C 6.34375 0.175781 6.117188 0.234375 5.890625 0.234375 C 5.597656 0.234375 5.363281 0.140625 5.1875 -0.046875 C 5.007812 -0.234375 4.914062 -0.457031 4.90625 -0.71875 L 4.890625 -1 L 4.875 -1 C 4.664062 -0.613281 4.359375 -0.3125 3.953125 -0.09375 C 3.554688 0.125 3.085938 0.234375 2.546875 0.234375 Z M 2.703125 -0.578125 C 3.128906 -0.578125 3.503906 -0.660156 3.828125 -0.828125 C 4.160156 -1.003906 4.421875 -1.238281 4.609375 -1.53125 C 4.796875 -1.832031 4.890625 -2.175781 4.890625 -2.5625 L 4.890625 -3 L 3.046875 -2.765625 C 2.316406 -2.679688 1.816406 -2.53125 1.546875 -2.3125 C 1.273438 -2.101562 1.140625 -1.859375 1.140625 -1.578125 C 1.140625 -1.273438 1.285156 -1.03125 1.578125 -0.84375 C 1.867188 -0.664062 2.242188 -0.578125 2.703125 -0.578125 Z M 2.703125 -0.578125 "/></g></g></g><g fill="#000000" fill-opacity="1"><g transform="translate(234.501089, 292.56959)"><g><path d="M 0.59375 0 L 0.59375 -8.734375 L 1.5 -8.734375 L 1.5 0 Z M 0.59375 0 "/></g></g></g><g fill="#000000" fill-opacity="1"><g transform="translate(237.457424, 292.56959)"><g><path d="M 3.203125 0.234375 C 2.640625 0.234375 2.179688 0.0625 1.828125 -0.28125 C 1.484375 -0.625 1.3125 -1.066406 1.3125 -1.609375 L 1.3125 -5.25 L 0 -5.25 L 0 -6 L 1.3125 -6 L 1.3125 -7.78125 L 2.21875 -7.984375 L 2.21875 -6 L 4.90625 -6 L 4.90625 -5.25 L 2.21875 -5.25 L 2.21875 -1.703125 C 2.21875 -1.367188 2.3125 -1.09375 2.5 -0.875 C 2.695312 -0.65625 2.960938 -0.546875 3.296875 -0.546875 C 3.585938 -0.546875 3.859375 -0.648438 4.109375 -0.859375 C 4.359375 -1.066406 4.515625 -1.363281 4.578125 -1.75 L 5.3125 -1.453125 C 5.25 -1.097656 5.117188 -0.796875 4.921875 -0.546875 C 4.722656 -0.296875 4.472656 -0.101562 4.171875 0.03125 C 3.867188 0.164062 3.546875 0.234375 3.203125 0.234375 Z M 3.203125 0.234375 "/></g></g></g><g fill="#000000" fill-opacity="1"><g transform="translate(243.678312, 292.56959)"><g><path d="M 0.59375 0 L 0.59375 -8.734375 L 1.5 -8.734375 L 1.5 -5.109375 L 1.515625 -5.109375 C 1.765625 -5.472656 2.078125 -5.75 2.453125 -5.9375 C 2.835938 -6.132812 3.289062 -6.234375 3.8125 -6.234375 C 4.5 -6.234375 5.039062 -6.023438 5.4375 -5.609375 C 5.832031 -5.191406 6.03125 -4.613281 6.03125 -3.875 L 6.03125 0 L 5.125 0 L 5.125 -3.78125 C 5.125 -4.289062 4.984375 -4.695312 4.703125 -5 C 4.421875 -5.300781 4.039062 -5.453125 3.5625 -5.453125 C 3.15625 -5.453125 2.796875 -5.363281 2.484375 -5.1875 C 2.179688 -5.007812 1.941406 -4.765625 1.765625 -4.453125 C 1.585938 -4.148438 1.5 -3.796875 1.5 -3.390625 L 1.5 0 Z M 0.59375 0 "/></g></g></g><g fill="#000000" fill-opacity="1"><g transform="translate(251.110053, 292.56959)"><g><path d="M 2.890625 2.734375 C 2.148438 2.734375 1.515625 2.585938 0.984375 2.296875 C 0.453125 2.015625 0.0703125 1.632812 -0.15625 1.15625 L 0.625 0.640625 C 0.8125 1.023438 1.097656 1.332031 1.484375 1.5625 C 1.878906 1.789062 2.34375 1.90625 2.875 1.90625 C 3.550781 1.90625 4.082031 1.722656 4.46875 1.359375 C 4.863281 1.003906 5.0625 0.507812 5.0625 -0.125 L 5.0625 -0.640625 L 5.046875 -0.640625 C 4.835938 -0.296875 4.546875 -0.0234375 4.171875 0.171875 C 3.804688 0.367188 3.414062 0.46875 3 0.46875 C 2.5 0.46875 2.0625 0.351562 1.6875 0.125 C 1.320312 -0.101562 1.035156 -0.414062 0.828125 -0.8125 C 0.617188 -1.207031 0.515625 -1.660156 0.515625 -2.171875 L 0.515625 -6 L 1.421875 -6 L 1.421875 -2.171875 C 1.421875 -1.640625 1.566406 -1.203125 1.859375 -0.859375 C 2.160156 -0.515625 2.570312 -0.34375 3.09375 -0.34375 C 3.445312 -0.34375 3.769531 -0.425781 4.0625 -0.59375 C 4.363281 -0.769531 4.601562 -1.003906 4.78125 -1.296875 C 4.957031 -1.585938 5.046875 -1.921875 5.046875 -2.296875 L 5.046875 -6 L 5.953125 -6 L 5.96875 -0.125 C 5.96875 0.769531 5.691406 1.46875 5.140625 1.96875 C 4.585938 2.476562 3.835938 2.734375 2.890625 2.734375 Z M 2.890625 2.734375 "/></g></g></g><g fill="#000000" fill-opacity="1"><g transform="translate(258.529927, 292.56959)"><g/></g></g><g fill="#000000" fill-opacity="1"><g transform="translate(262.625884, 292.56959)"><g><path d="M 0.59375 0 L 0.59375 -8.734375 L 1.5 -8.734375 L 1.5 0 Z M 0.59375 0 "/></g></g></g><g fill="#000000" fill-opacity="1"><g transform="translate(265.582219, 292.56959)"><g><path d="M 1.140625 -7.15625 C 0.941406 -7.15625 0.78125 -7.21875 0.65625 -7.34375 C 0.53125 -7.46875 0.46875 -7.628906 0.46875 -7.828125 C 0.46875 -8.023438 0.53125 -8.179688 0.65625 -8.296875 C 0.78125 -8.421875 0.941406 -8.484375 1.140625 -8.484375 C 1.335938 -8.484375 1.5 -8.421875 1.625 -8.296875 C 1.75 -8.179688 1.8125 -8.023438 1.8125 -7.828125 C 1.8125 -7.628906 1.75 -7.46875 1.625 -7.34375 C 1.5 -7.21875 1.335938 -7.15625 1.140625 -7.15625 Z M 0.671875 0 L 0.671875 -6 L 1.578125 -6 L 1.578125 0 Z M 0.671875 0 "/></g></g></g><g fill="#000000" fill-opacity="1"><g transform="translate(268.740359, 292.56959)"><g><path d="M 1.3125 0 L 1.3125 -5.25 L -0.015625 -5.25 L -0.015625 -6 L 1.3125 -6 L 1.3125 -7.046875 C 1.3125 -7.597656 1.488281 -8.046875 1.84375 -8.390625 C 2.207031 -8.734375 2.675781 -8.90625 3.25 -8.90625 C 3.78125 -8.90625 4.226562 -8.757812 4.59375 -8.46875 C 4.96875 -8.1875 5.207031 -7.820312 5.3125 -7.375 L 4.515625 -7.046875 C 4.453125 -7.347656 4.304688 -7.601562 4.078125 -7.8125 C 3.847656 -8.019531 3.585938 -8.125 3.296875 -8.125 C 2.972656 -8.125 2.707031 -8.007812 2.5 -7.78125 C 2.300781 -7.5625 2.203125 -7.265625 2.203125 -6.890625 L 2.203125 -6 L 4.796875 -6 L 4.796875 -5.25 L 2.203125 -5.25 L 2.21875 0 Z M 1.3125 0 "/></g></g></g><g fill="#000000" fill-opacity="1"><g transform="translate(274.913765, 292.56959)"><g><path d="M 3.671875 0.234375 C 3.035156 0.234375 2.46875 0.09375 1.96875 -0.1875 C 1.46875 -0.476562 1.070312 -0.867188 0.78125 -1.359375 C 0.5 -1.859375 0.359375 -2.425781 0.359375 -3.0625 C 0.359375 -3.675781 0.488281 -4.222656 0.75 -4.703125 C 1.007812 -5.179688 1.367188 -5.554688 1.828125 -5.828125 C 2.296875 -6.097656 2.828125 -6.234375 3.421875 -6.234375 C 4.003906 -6.234375 4.515625 -6.097656 4.953125 -5.828125 C 5.390625 -5.554688 5.726562 -5.179688 5.96875 -4.703125 C 6.21875 -4.222656 6.347656 -3.671875 6.359375 -3.046875 C 6.359375 -2.992188 6.359375 -2.9375 6.359375 -2.875 C 6.359375 -2.820312 6.351562 -2.765625 6.34375 -2.703125 L 1.296875 -2.703125 C 1.335938 -2.285156 1.460938 -1.914062 1.671875 -1.59375 C 1.890625 -1.269531 2.171875 -1.019531 2.515625 -0.84375 C 2.867188 -0.664062 3.257812 -0.578125 3.6875 -0.578125 C 4.144531 -0.578125 4.5625 -0.6875 4.9375 -0.90625 C 5.3125 -1.125 5.582031 -1.394531 5.75 -1.71875 L 6.53125 -1.40625 C 6.40625 -1.082031 6.203125 -0.796875 5.921875 -0.546875 C 5.640625 -0.296875 5.304688 -0.101562 4.921875 0.03125 C 4.535156 0.164062 4.117188 0.234375 3.671875 0.234375 Z M 1.3125 -3.484375 L 5.390625 -3.484375 C 5.335938 -4.097656 5.128906 -4.570312 4.765625 -4.90625 C 4.410156 -5.238281 3.957031 -5.40625 3.40625 -5.40625 C 2.851562 -5.40625 2.382812 -5.226562 2 -4.875 C 1.625 -4.519531 1.394531 -4.054688 1.3125 -3.484375 Z M 1.3125 -3.484375 "/></g></g></g></svg>