<svg xmlns="http://www.w3.org/2000/svg" xmlns:xlink="http://www.w3.org/1999/xlink" width="500" zoomAndPan="magnify" viewBox="0 0 375 374.999991" height="500" preserveAspectRatio="xMidYMid meet" version="1.0"><defs><g/><clipPath id="b4f30a0f73"><path d="M 157 132 L 218 132 L 218 207 L 157 207 Z M 157 132 " clip-rule="nonzero"/></clipPath><clipPath id="1ccd5893b0"><path d="M 157.6875 132.992188 L 217.476562 133.394531 L 216.980469 207.199219 L 157.191406 206.796875 Z M 157.6875 132.992188 " clip-rule="nonzero"/></clipPath><clipPath id="75f4032a22"><path d="M 177.144531 204.988281 C 180.203125 206.050781 183.683594 206.757812 187.101562 206.78125 C 190.523438 206.804688 193.820312 206.238281 196.859375 205.21875 C 196.921875 205.1875 196.988281 205.1875 197.050781 205.152344 C 208.472656 201.0625 216.933594 190.105469 217.183594 177.238281 L 217.476562 133.394531 L 157.6875 132.992188 L 157.390625 176.804688 C 157.464844 189.773438 165.652344 200.839844 177.144531 204.988281 Z M 177.144531 204.988281 " clip-rule="nonzero"/></clipPath><clipPath id="af678c09e2"><path d="M 157 83 L 218 83 L 218 158 L 157 158 Z M 157 83 " clip-rule="nonzero"/></clipPath><clipPath id="05dbe27046"><path d="M 217.308594 157.707031 L 157.519531 157.304688 L 158.015625 83.5 L 217.808594 83.902344 Z M 217.308594 157.707031 " clip-rule="nonzero"/></clipPath><clipPath id="3b1ed46230"><path d="M 197.851562 85.710938 C 194.792969 84.648438 191.3125 83.941406 187.894531 83.917969 C 184.472656 83.894531 181.179688 84.457031 178.136719 85.480469 C 178.074219 85.511719 178.007812 85.511719 177.945312 85.542969 C 166.527344 89.636719 158.0625 100.589844 157.8125 113.457031 L 157.519531 157.304688 L 217.308594 157.707031 L 217.605469 113.890625 C 217.53125 100.925781 209.34375 89.859375 197.851562 85.710938 Z M 197.851562 85.710938 " clip-rule="nonzero"/></clipPath><clipPath id="de9dfff5a2"><path d="M 160 86 L 215 86 L 215 150 L 160 150 Z M 160 86 " clip-rule="nonzero"/></clipPath><clipPath id="d3c819156a"><path d="M 214.378906 149.074219 L 160.566406 148.710938 L 160.988281 86.066406 L 214.800781 86.429688 Z M 214.378906 149.074219 " clip-rule="nonzero"/></clipPath><clipPath id="32a3d681a2"><path d="M 196.84375 88.066406 C 194.089844 87.109375 190.957031 86.472656 187.878906 86.453125 C 184.800781 86.433594 181.835938 86.941406 179.097656 87.859375 C 179.039062 87.886719 178.980469 87.886719 178.921875 87.917969 C 168.644531 91.601562 161.027344 101.460938 160.804688 112.957031 L 160.566406 148.710938 L 214.378906 149.074219 L 214.621094 113.34375 C 214.554688 101.761719 207.183594 91.800781 196.84375 88.066406 Z M 196.84375 88.066406 " clip-rule="nonzero"/></clipPath><clipPath id="0ca64f042c"><path d="M 160 145 L 215 145 L 215 205 L 160 205 Z M 160 145 " clip-rule="nonzero"/></clipPath><clipPath id="da4c778eac"><path d="M 160.59375 145.171875 L 214.40625 145.535156 L 214.011719 204.605469 L 160.195312 204.242188 Z M 160.59375 145.171875 " clip-rule="nonzero"/></clipPath><clipPath id="0f83fb3042"><path d="M 178.15625 202.636719 C 180.90625 203.59375 184.039062 204.230469 187.117188 204.25 C 190.195312 204.273438 193.164062 203.765625 195.898438 202.84375 C 195.957031 202.816406 196.015625 202.816406 196.074219 202.785156 C 206.351562 199.101562 213.96875 189.242188 214.191406 177.828125 L 214.40625 145.535156 L 160.59375 145.171875 L 160.375 177.441406 C 160.445312 188.941406 167.8125 198.902344 178.15625 202.636719 Z M 178.15625 202.636719 " clip-rule="nonzero"/></clipPath><clipPath id="9497b7e248"><path d="M 164 150 L 211 150 L 211 201 L 164 201 Z M 164 150 " clip-rule="nonzero"/></clipPath><clipPath id="9c1f2fa07a"><path d="M 164.277344 150.3125 L 210.652344 150.625 L 210.316406 200.804688 L 163.941406 200.492188 Z M 164.277344 150.3125 " clip-rule="nonzero"/></clipPath><clipPath id="6362677519"><path d="M 179.417969 199.234375 C 181.789062 200.058594 184.488281 200.609375 187.140625 200.625 C 189.792969 200.644531 192.351562 200.207031 194.707031 199.414062 C 194.757812 199.390625 194.808594 199.390625 194.859375 199.363281 C 203.714844 196.191406 210.28125 187.691406 210.472656 177.867188 L 210.652344 150.625 L 164.277344 150.3125 L 164.09375 177.535156 C 164.152344 187.433594 170.503906 196.015625 179.417969 199.234375 Z M 179.417969 199.234375 " clip-rule="nonzero"/></clipPath><clipPath id="fa14e05dad"><path d="M 164.414062 126 L 210.914062 126 L 210.914062 161.457031 L 164.414062 161.457031 Z M 164.414062 126 " clip-rule="nonzero"/></clipPath></defs><g clip-path="url(#b4f30a0f73)"><g clip-path="url(#1ccd5893b0)"><g clip-path="url(#75f4032a22)"><path fill="#000000" d="M 157.6875 132.992188 L 217.476562 133.394531 L 216.984375 206.964844 L 157.191406 206.5625 Z M 157.6875 132.992188 " fill-opacity="1" fill-rule="nonzero"/></g></g></g><g clip-path="url(#af678c09e2)"><g clip-path="url(#05dbe27046)"><g clip-path="url(#3b1ed46230)"><path fill="#000000" d="M 217.308594 157.707031 L 157.519531 157.304688 L 158.015625 83.734375 L 217.804688 84.136719 Z M 217.308594 157.707031 " fill-opacity="1" fill-rule="nonzero"/></g></g></g><g clip-path="url(#de9dfff5a2)"><g clip-path="url(#d3c819156a)"><g clip-path="url(#32a3d681a2)"><path fill="#efefef" d="M 214.378906 149.074219 L 160.566406 148.710938 L 160.984375 86.277344 L 214.800781 86.640625 Z M 214.378906 149.074219 " fill-opacity="1" fill-rule="nonzero"/></g></g></g><g clip-path="url(#0ca64f042c)"><g clip-path="url(#da4c778eac)"><g clip-path="url(#0f83fb3042)"><path fill="#efefef" d="M 160.59375 145.171875 L 214.40625 145.535156 L 214.011719 204.394531 L 160.195312 204.03125 Z M 160.59375 145.171875 " fill-opacity="1" fill-rule="nonzero"/></g></g></g><g clip-path="url(#9497b7e248)"><g clip-path="url(#9c1f2fa07a)"><g clip-path="url(#6362677519)"><path fill="#000000" d="M 164.277344 150.3125 L 210.652344 150.625 L 210.316406 200.804688 L 163.941406 200.492188 Z M 164.277344 150.3125 " fill-opacity="1" fill-rule="nonzero"/></g></g></g><path fill="#000000" d="M 174.332031 140.179688 C 176.730469 140.179688 178.675781 137.910156 178.675781 135.113281 C 178.675781 132.3125 176.730469 130.042969 174.332031 130.042969 C 171.9375 130.042969 169.992188 132.3125 169.992188 135.113281 C 169.992188 137.910156 171.9375 140.179688 174.332031 140.179688 Z M 174.332031 140.179688 " fill-opacity="1" fill-rule="nonzero"/><path fill="#000000" d="M 183.707031 133.675781 L 201.058594 133.675781 C 203.601562 133.675781 205.101562 135.585938 205.101562 138.148438 L 205.101562 145.484375 L 183.707031 145.484375 Z M 183.707031 133.675781 " fill-opacity="1" fill-rule="nonzero"/><path fill="#000000" d="M 178.984375 136.296875 L 178.984375 140.699219 L 172.3125 140.699219 C 169.089844 140.710938 169.085938 145.546875 172.3125 145.546875 L 181.058594 145.546875 C 182.335938 145.546875 183.132812 144.339844 183.132812 142.980469 L 183.132812 136.296875 C 183.132812 132.640625 178.984375 132.640625 178.984375 136.296875 Z M 178.984375 136.296875 " fill-opacity="1" fill-rule="nonzero"/><g clip-path="url(#fa14e05dad)"><path fill="#000000" d="M 169.164062 129.449219 C 169.164062 125.457031 164.421875 125.457031 164.421875 129.449219 L 164.421875 161.457031 L 169.269531 161.457031 L 169.269531 153.191406 L 206.152344 153.191406 L 206.152344 161.394531 L 210.894531 161.394531 L 210.894531 136.671875 C 210.894531 132.460938 206.101562 132.460938 206.101562 136.671875 L 206.101562 146.539062 L 169.164062 146.539062 Z M 169.164062 129.449219 " fill-opacity="1" fill-rule="nonzero"/></g><g fill="#000000" fill-opacity="1"><g transform="translate(95.146669, 249.581249)"><g><path d="M 1.046875 -32.078125 L 1.046875 -35.46875 L 21.84375 -35.46875 L 21.84375 -32.078125 L 13.265625 -32.078125 L 13.265625 -0.109375 L 9.625 -0.109375 L 9.625 -32.078125 Z M 1.046875 -32.078125 "/></g></g></g><g fill="#000000" fill-opacity="1"><g transform="translate(118.024929, 249.581249)"><g><path d="M 7.59375 -30.78125 C 8.039062 -30.332031 8.265625 -29.796875 8.265625 -29.171875 C 8.265625 -28.515625 8.039062 -27.960938 7.59375 -27.515625 C 7.144531 -27.054688 6.609375 -26.828125 5.984375 -26.828125 C 5.316406 -26.828125 4.757812 -27.054688 4.3125 -27.515625 C 3.863281 -27.960938 3.640625 -28.515625 3.640625 -29.171875 C 3.640625 -29.796875 3.863281 -30.332031 4.3125 -30.78125 C 4.757812 -31.226562 5.316406 -31.453125 5.984375 -31.453125 C 6.609375 -31.453125 7.144531 -31.226562 7.59375 -30.78125 Z M 7.796875 0 L 4.15625 0 L 4.15625 -22.875 L 7.796875 -22.875 Z M 7.796875 0 "/></g></g></g><g fill="#000000" fill-opacity="1"><g transform="translate(129.932026, 249.581249)"><g><path d="M 32.921875 -0.109375 L 32.921875 -14.40625 C 32.921875 -16.757812 32.175781 -18.421875 30.6875 -19.390625 C 30.164062 -19.703125 29.363281 -19.859375 28.28125 -19.859375 C 27.207031 -19.859375 26.203125 -19.546875 25.265625 -18.921875 C 24.335938 -18.296875 23.59375 -17.5 23.03125 -16.53125 C 22.820312 -16.15625 22.632812 -15.738281 22.46875 -15.28125 C 22.46875 -15.007812 22.46875 -14.71875 22.46875 -14.40625 L 22.46875 -0.109375 L 18.828125 -0.109375 L 18.828125 -14.40625 C 18.828125 -16.757812 18.082031 -18.421875 16.59375 -19.390625 C 16.070312 -19.703125 15.273438 -19.859375 14.203125 -19.859375 C 13.117188 -19.859375 12.113281 -19.546875 11.1875 -18.921875 C 10.25 -18.296875 9.5 -17.5 8.9375 -16.53125 C 8.21875 -15.25 7.753906 -13.671875 7.546875 -11.796875 L 7.546875 -0.109375 L 3.90625 -0.109375 L 3.90625 -22.984375 L 7.546875 -22.984375 L 7.546875 -19.34375 C 8.234375 -20.519531 9.097656 -21.472656 10.140625 -22.203125 C 11.316406 -23.066406 12.703125 -23.5 14.296875 -23.5 C 15.890625 -23.5 17.171875 -23.257812 18.140625 -22.78125 C 19.117188 -22.257812 19.9375 -21.582031 20.59375 -20.75 C 20.9375 -20.257812 21.25 -19.722656 21.53125 -19.140625 C 22.21875 -20.390625 23.117188 -21.410156 24.234375 -22.203125 C 25.410156 -23.066406 26.796875 -23.5 28.390625 -23.5 C 29.984375 -23.5 31.265625 -23.257812 32.234375 -22.78125 C 33.210938 -22.257812 34.03125 -21.582031 34.6875 -20.75 C 35.9375 -19.113281 36.5625 -17 36.5625 -14.40625 L 36.5625 -0.109375 Z M 32.921875 -0.109375 "/></g></g></g><g fill="#000000" fill-opacity="1"><g transform="translate(169.605016, 249.581249)"><g><path d="M 26.265625 -11.953125 L 26.265625 -10.03125 L 6.140625 -10.03125 C 6.484375 -8.0625 7.4375 -6.453125 9 -5.203125 C 10.59375 -3.921875 12.359375 -3.28125 14.296875 -3.28125 C 15.617188 -3.28125 16.882812 -3.59375 18.09375 -4.21875 C 19.269531 -4.800781 20.257812 -5.628906 21.0625 -6.703125 L 25.21875 -6.703125 C 24.25 -4.523438 22.796875 -2.8125 20.859375 -1.5625 C 18.878906 -0.28125 16.882812 0.359375 14.875 0.359375 C 12.820312 0.359375 11.085938 0.046875 9.671875 -0.578125 C 8.210938 -1.203125 6.945312 -2.050781 5.875 -3.125 C 3.519531 -5.40625 2.34375 -8.210938 2.34375 -11.546875 C 2.34375 -14.835938 3.519531 -17.660156 5.875 -20.015625 C 8.195312 -22.335938 11.003906 -23.5 14.296875 -23.5 C 17.484375 -23.5 20.273438 -22.375 22.671875 -20.125 C 25.066406 -17.832031 26.265625 -15.109375 26.265625 -11.953125 Z M 22.40625 -13.15625 C 21.988281 -15.09375 21.019531 -16.703125 19.5 -17.984375 C 17.976562 -19.234375 16.242188 -19.859375 14.296875 -19.859375 C 11.316406 -19.859375 8.976562 -18.523438 7.28125 -15.859375 C 6.757812 -15.023438 6.394531 -14.125 6.1875 -13.15625 Z M 22.40625 -13.15625 "/></g></g></g><g fill="#000000" fill-opacity="1"><g transform="translate(197.942863, 249.581249)"><g><path d="M 7.546875 0 L 3.90625 0 L 3.90625 -39 L 7.546875 -39 Z M 7.546875 0 "/></g></g></g><g fill="#000000" fill-opacity="1"><g transform="translate(209.381998, 249.581249)"><g><path d="M 26.265625 -11.953125 L 26.265625 -10.03125 L 6.140625 -10.03125 C 6.484375 -8.0625 7.4375 -6.453125 9 -5.203125 C 10.59375 -3.921875 12.359375 -3.28125 14.296875 -3.28125 C 15.617188 -3.28125 16.882812 -3.59375 18.09375 -4.21875 C 19.269531 -4.800781 20.257812 -5.628906 21.0625 -6.703125 L 25.21875 -6.703125 C 24.25 -4.523438 22.796875 -2.8125 20.859375 -1.5625 C 18.878906 -0.28125 16.882812 0.359375 14.875 0.359375 C 12.820312 0.359375 11.085938 0.046875 9.671875 -0.578125 C 8.210938 -1.203125 6.945312 -2.050781 5.875 -3.125 C 3.519531 -5.40625 2.34375 -8.210938 2.34375 -11.546875 C 2.34375 -14.835938 3.519531 -17.660156 5.875 -20.015625 C 8.195312 -22.335938 11.003906 -23.5 14.296875 -23.5 C 17.484375 -23.5 20.273438 -22.375 22.671875 -20.125 C 25.066406 -17.832031 26.265625 -15.109375 26.265625 -11.953125 Z M 22.40625 -13.15625 C 21.988281 -15.09375 21.019531 -16.703125 19.5 -17.984375 C 17.976562 -19.234375 16.242188 -19.859375 14.296875 -19.859375 C 11.316406 -19.859375 8.976562 -18.523438 7.28125 -15.859375 C 6.757812 -15.023438 6.394531 -14.125 6.1875 -13.15625 Z M 22.40625 -13.15625 "/></g></g></g><g fill="#000000" fill-opacity="1"><g transform="translate(237.719845, 249.581249)"><g><path d="M 7.234375 -3.28125 C 8.128906 -2.65625 9.304688 -2.34375 10.765625 -2.34375 C 14.085938 -2.34375 15.75 -3.585938 15.75 -6.078125 C 15.75 -7.535156 14.554688 -8.644531 12.171875 -9.40625 C 11.160156 -9.757812 10.082031 -10.070312 8.9375 -10.34375 C 7.757812 -10.625 6.671875 -10.988281 5.671875 -11.4375 C 4.492188 -11.988281 3.609375 -12.679688 3.015625 -13.515625 C 2.421875 -14.347656 2.125 -15.335938 2.125 -16.484375 C 2.125 -18.773438 2.925781 -20.488281 4.53125 -21.625 C 6.125 -22.8125 8.03125 -23.40625 10.25 -23.40625 C 12.46875 -23.40625 14.300781 -22.953125 15.75 -22.046875 C 17.207031 -21.148438 18.195312 -19.539062 18.71875 -17.21875 L 14.8125 -17.21875 C 14.40625 -18.5 13.800781 -19.347656 13 -19.765625 C 12.238281 -20.179688 11.285156 -20.390625 10.140625 -20.390625 C 8.992188 -20.390625 8.023438 -20.144531 7.234375 -19.65625 C 6.398438 -19.132812 5.984375 -18.375 5.984375 -17.375 C 5.984375 -16.332031 6.328125 -15.566406 7.015625 -15.078125 C 7.679688 -14.628906 8.515625 -14.234375 9.515625 -13.890625 C 10.523438 -13.578125 11.617188 -13.296875 12.796875 -13.046875 C 13.941406 -12.773438 15.03125 -12.394531 16.0625 -11.90625 C 18.425781 -10.800781 19.609375 -9.015625 19.609375 -6.546875 C 19.609375 -4.085938 18.722656 -2.269531 16.953125 -1.09375 C 16.046875 -0.5 15.054688 -0.046875 13.984375 0.265625 C 12.941406 0.535156 11.800781 0.671875 10.5625 0.671875 C 5.25 0.671875 2.195312 -1.679688 1.40625 -6.390625 L 5.25 -6.390625 C 5.632812 -4.898438 6.296875 -3.863281 7.234375 -3.28125 Z M 7.234375 -3.28125 "/></g></g></g><g fill="#000000" fill-opacity="1"><g transform="translate(258.62226, 249.581249)"><g><path d="M 7.234375 -3.28125 C 8.128906 -2.65625 9.304688 -2.34375 10.765625 -2.34375 C 14.085938 -2.34375 15.75 -3.585938 15.75 -6.078125 C 15.75 -7.535156 14.554688 -8.644531 12.171875 -9.40625 C 11.160156 -9.757812 10.082031 -10.070312 8.9375 -10.34375 C 7.757812 -10.625 6.671875 -10.988281 5.671875 -11.4375 C 4.492188 -11.988281 3.609375 -12.679688 3.015625 -13.515625 C 2.421875 -14.347656 2.125 -15.335938 2.125 -16.484375 C 2.125 -18.773438 2.925781 -20.488281 4.53125 -21.625 C 6.125 -22.8125 8.03125 -23.40625 10.25 -23.40625 C 12.46875 -23.40625 14.300781 -22.953125 15.75 -22.046875 C 17.207031 -21.148438 18.195312 -19.539062 18.71875 -17.21875 L 14.8125 -17.21875 C 14.40625 -18.5 13.800781 -19.347656 13 -19.765625 C 12.238281 -20.179688 11.285156 -20.390625 10.140625 -20.390625 C 8.992188 -20.390625 8.023438 -20.144531 7.234375 -19.65625 C 6.398438 -19.132812 5.984375 -18.375 5.984375 -17.375 C 5.984375 -16.332031 6.328125 -15.566406 7.015625 -15.078125 C 7.679688 -14.628906 8.515625 -14.234375 9.515625 -13.890625 C 10.523438 -13.578125 11.617188 -13.296875 12.796875 -13.046875 C 13.941406 -12.773438 15.03125 -12.394531 16.0625 -11.90625 C 18.425781 -10.800781 19.609375 -9.015625 19.609375 -6.546875 C 19.609375 -4.085938 18.722656 -2.269531 16.953125 -1.09375 C 16.046875 -0.5 15.054688 -0.046875 13.984375 0.265625 C 12.941406 0.535156 11.800781 0.671875 10.5625 0.671875 C 5.25 0.671875 2.195312 -1.679688 1.40625 -6.390625 L 5.25 -6.390625 C 5.632812 -4.898438 6.296875 -3.863281 7.234375 -3.28125 Z M 7.234375 -3.28125 "/></g></g></g><g fill="#000000" fill-opacity="1"><g transform="translate(236.665244, 262.517853)"><g><path d="M 0.71875 0 L 0.71875 -8.40625 L 1.21875 -8.40625 L 1.21875 -0.46875 L 5.921875 -0.46875 L 5.921875 0 Z M 0.71875 0 "/></g></g></g><g fill="#000000" fill-opacity="1"><g transform="translate(243.577258, 262.517853)"><g><path d="M 0.90625 -7.3125 C 0.78125 -7.3125 0.675781 -7.347656 0.59375 -7.421875 C 0.519531 -7.492188 0.484375 -7.597656 0.484375 -7.734375 C 0.484375 -7.847656 0.519531 -7.941406 0.59375 -8.015625 C 0.675781 -8.097656 0.78125 -8.140625 0.90625 -8.140625 C 1.03125 -8.140625 1.128906 -8.097656 1.203125 -8.015625 C 1.285156 -7.941406 1.328125 -7.847656 1.328125 -7.734375 C 1.328125 -7.597656 1.285156 -7.492188 1.203125 -7.421875 C 1.128906 -7.347656 1.03125 -7.3125 0.90625 -7.3125 Z M 0.65625 0 L 0.65625 -6.015625 L 1.140625 -6.015625 L 1.140625 0 Z M 0.65625 0 "/></g></g></g><g fill="#000000" fill-opacity="1"><g transform="translate(246.265258, 262.517853)"><g><path d="M 2.71875 0 L 0.125 -6.015625 L 0.640625 -6.015625 L 3 -0.46875 L 3.015625 -0.46875 L 5.375 -6.015625 L 5.875 -6.015625 L 3.28125 0 Z M 2.71875 0 "/></g></g></g><g fill="#000000" fill-opacity="1"><g transform="translate(253.14127, 262.517853)"><g><path d="M 0.90625 -7.3125 C 0.78125 -7.3125 0.675781 -7.347656 0.59375 -7.421875 C 0.519531 -7.492188 0.484375 -7.597656 0.484375 -7.734375 C 0.484375 -7.847656 0.519531 -7.941406 0.59375 -8.015625 C 0.675781 -8.097656 0.78125 -8.140625 0.90625 -8.140625 C 1.03125 -8.140625 1.128906 -8.097656 1.203125 -8.015625 C 1.285156 -7.941406 1.328125 -7.847656 1.328125 -7.734375 C 1.328125 -7.597656 1.285156 -7.492188 1.203125 -7.421875 C 1.128906 -7.347656 1.03125 -7.3125 0.90625 -7.3125 Z M 0.65625 0 L 0.65625 -6.015625 L 1.140625 -6.015625 L 1.140625 0 Z M 0.65625 0 "/></g></g></g><g fill="#000000" fill-opacity="1"><g transform="translate(255.82927, 262.517853)"><g><path d="M 3.5625 -6.25 C 4.269531 -6.25 4.820312 -6.046875 5.21875 -5.640625 C 5.625 -5.234375 5.828125 -4.671875 5.828125 -3.953125 L 5.828125 0 L 5.359375 0 L 5.359375 -3.921875 C 5.359375 -4.503906 5.191406 -4.960938 4.859375 -5.296875 C 4.535156 -5.628906 4.078125 -5.796875 3.484375 -5.796875 C 2.742188 -5.796875 2.15625 -5.582031 1.71875 -5.15625 C 1.289062 -4.726562 1.078125 -4.164062 1.078125 -3.46875 L 1.078125 0 L 0.59375 0 L 0.59375 -6.015625 L 1.0625 -6.015625 L 1.078125 -4.875 L 1.09375 -4.875 C 1.300781 -5.300781 1.617188 -5.632812 2.046875 -5.875 C 2.472656 -6.125 2.976562 -6.25 3.5625 -6.25 Z M 3.5625 -6.25 "/></g></g></g><g fill="#000000" fill-opacity="1"><g transform="translate(263.077282, 262.517853)"><g><path d="M 3.296875 2.765625 C 2.816406 2.765625 2.359375 2.691406 1.921875 2.546875 C 1.484375 2.398438 1.085938 2.195312 0.734375 1.9375 C 0.378906 1.675781 0.09375 1.367188 -0.125 1.015625 L 0.28125 0.71875 C 0.5625 1.195312 0.972656 1.578125 1.515625 1.859375 C 2.066406 2.148438 2.660156 2.296875 3.296875 2.296875 C 4.179688 2.296875 4.878906 2.054688 5.390625 1.578125 C 5.910156 1.097656 6.171875 0.410156 6.171875 -0.484375 L 6.171875 -1.5 L 6.15625 -1.5 C 6.019531 -1.125 5.804688 -0.804688 5.515625 -0.546875 C 5.234375 -0.296875 4.910156 -0.109375 4.546875 0.015625 C 4.191406 0.140625 3.84375 0.203125 3.5 0.203125 C 2.90625 0.203125 2.375 0.0664062 1.90625 -0.203125 C 1.4375 -0.484375 1.066406 -0.863281 0.796875 -1.34375 C 0.535156 -1.832031 0.40625 -2.390625 0.40625 -3.015625 C 0.40625 -3.640625 0.535156 -4.195312 0.796875 -4.6875 C 1.066406 -5.175781 1.4375 -5.554688 1.90625 -5.828125 C 2.375 -6.109375 2.90625 -6.25 3.5 -6.25 C 3.863281 -6.25 4.21875 -6.179688 4.5625 -6.046875 C 4.90625 -5.910156 5.21875 -5.71875 5.5 -5.46875 C 5.78125 -5.226562 6 -4.953125 6.15625 -4.640625 L 6.171875 -4.640625 L 6.1875 -6.015625 L 6.640625 -6.015625 L 6.640625 -0.484375 C 6.640625 0.554688 6.335938 1.359375 5.734375 1.921875 C 5.140625 2.484375 4.328125 2.765625 3.296875 2.765625 Z M 3.546875 -0.25 C 4.054688 -0.25 4.507812 -0.367188 4.90625 -0.609375 C 5.300781 -0.847656 5.613281 -1.175781 5.84375 -1.59375 C 6.070312 -2.007812 6.1875 -2.484375 6.1875 -3.015625 C 6.1875 -3.546875 6.070312 -4.019531 5.84375 -4.4375 C 5.613281 -4.863281 5.300781 -5.195312 4.90625 -5.4375 C 4.507812 -5.675781 4.054688 -5.796875 3.546875 -5.796875 C 3.023438 -5.796875 2.566406 -5.675781 2.171875 -5.4375 C 1.773438 -5.195312 1.460938 -4.867188 1.234375 -4.453125 C 1.003906 -4.035156 0.890625 -3.554688 0.890625 -3.015625 C 0.890625 -2.484375 1.003906 -2.007812 1.234375 -1.59375 C 1.460938 -1.175781 1.773438 -0.847656 2.171875 -0.609375 C 2.566406 -0.367188 3.023438 -0.25 3.546875 -0.25 Z M 3.546875 -0.25 "/></g></g></g></svg>